<?xml version="1.0" encoding="utf-8"?>
<!-- Generator: Adobe Illustrator 21.1.0, SVG Export Plug-In . SVG Version: 6.00 Build 0)  -->
<svg version="1.1" id="Layer_1" xmlns="http://www.w3.org/2000/svg" xmlns:xlink="http://www.w3.org/1999/xlink" x="0px" y="0px"
	 viewBox="0 0 372.3 160.4" style="enable-background:new 0 0 372.3 160.4;" xml:space="preserve">
<metadata><?xpacket begin="﻿" id="W5M0MpCehiHzreSzNTczkc9d"?>
<x:xmpmeta xmlns:x="adobe:ns:meta/" x:xmptk="Adobe XMP Core 5.6-c137 79.159768, 2016/08/11-13:24:42        ">
   <rdf:RDF xmlns:rdf="http://www.w3.org/1999/02/22-rdf-syntax-ns#">
      <rdf:Description rdf:about=""/>
   </rdf:RDF>
</x:xmpmeta>
                                                                                                    
                                                                                                    
                                                                                                    
                                                                                                    
                                                                                                    
                                                                                                    
                                                                                                    
                                                                                                    
                                                                                                    
                                                                                                    
                                                                                                    
                                                                                                    
                                                                                                    
                                                                                                    
                                                                                                    
                                                                                                    
                                                                                                    
                                                                                                    
                                                                                                    
                                                                                                    
                           
<?xpacket end="w"?></metadata>
<style type="text/css">
	.st0{fill:#FFFFFF;}
	.st1{fill:none;}
	.st2{fill:none;stroke:#FFFFFF;stroke-width:1.9145;stroke-miterlimit:10;}
	.st3{fill:#90292A;}
</style>
<g>
	<g>
		<path class="st0" d="M41.7,130.2v-2.1c6-0.4,6.2-0.8,6.2-8l-0.3-26.6h-0.2l-17.9,36.2h-1.5L11.8,94.5h-0.2l-1,18.9
			c-0.3,5.7-0.4,8.3-0.3,10.8c0.2,3.1,2,3.5,6.8,3.9v2.1H0V128c4.2-0.4,5.6-1,6.2-3.9c0.4-2.2,0.9-5,1.3-11.9l1-13.6
			c0.6-8.4,0.4-8.5-6.2-9.1v-2h11.6l16.6,33.2l17.1-33.2h12.2v2c-6.5,0.6-7,0.5-6.8,7.7l0.7,22.9c0.2,7.2,0.5,7.6,6.9,8v2.1H41.7z"
			/>
		<path class="st0" d="M90.5,130.2v-1.8c4.3-0.4,4.8-0.9,4-3.1l-3.5-8.8H77c-1,2.4-1.8,4.8-2.7,7.2c-1.5,3.8-0.8,4.3,4,4.7v1.8H64.1
			v-1.8c4.2-0.5,5-0.8,7.3-6l13-30.2l2.1-0.5c3.9,9.6,8.3,21.1,12.3,31c1.9,4.9,2.8,5.4,7,5.7v1.8H90.5z M84.3,98.5h-0.1
			c-2.1,5.1-4.1,10.3-6.1,15.2h12L84.3,98.5z"/>
		<path class="st0" d="M147.4,130.6c-0.9,0-1.7,0-2.5-0.1c-4-0.2-6.7-1.4-9.8-5.2c-2.2-2.8-4.6-6.6-6.5-9.3
			c-1.1-1.6-2.1-2.2-5.8-2.2h-2.3v9c0,4.9,0.6,5.3,5.8,5.5v1.8h-16.6v-1.8c5.5-0.3,6-0.6,6-5.5V99.6c0-5-0.5-5.1-5.6-5.5v-1.8h15.7
			c4.4,0,7.6,0.5,10,1.9c2.6,1.5,4.4,4.2,4.4,7.6c0,5-3.3,8.2-8.2,10.1c1.2,1.9,3.9,5.7,5.8,8.3c2.4,3.1,3.5,4.3,5.1,5.9
			c1.7,1.8,3.5,2.5,4.9,2.8L147.4,130.6z M123.9,111.8c3.4,0,5.4-0.6,7.1-1.8c2.5-1.8,3.6-4,3.6-7.2c0-6.2-4.8-8.4-9.8-8.4
			c-1.9,0-3,0.3-3.5,0.6c-0.6,0.4-0.8,1.1-0.8,2.6v14.2H123.9z"/>
		<path class="st0" d="M175.9,130.2v-1.8c4.3-0.4,4.8-0.9,4-3.1l-3.5-8.8h-14.1c-1,2.4-1.8,4.8-2.7,7.2c-1.5,3.8-0.8,4.3,4,4.7v1.8
			h-14.1v-1.8c4.2-0.5,5-0.8,7.3-6l13-30.2l2.1-0.5c3.9,9.6,8.3,21.1,12.3,31c1.9,4.9,2.8,5.4,7,5.7v1.8H175.9z M169.7,98.5h-0.1
			c-2.1,5.1-4.1,10.3-6.1,15.2h12L169.7,98.5z"/>
		<path class="st0" d="M223.5,101.3c-0.6-2.8-1.2-4.2-1.9-5c-1-1.4-1.9-1.8-6.7-1.8h-4.9v28.5c0,4.5,0.5,5.2,6.7,5.4v1.8h-18.2v-1.8
			c6-0.3,6.5-0.8,6.5-5.4V94.4h-4.5c-4.9,0-6.2,0.4-7,1.8c-0.7,0.9-1.2,2.6-1.9,5.1h-2.1c0.3-3.4,0.6-7.1,0.8-10.4h1.4
			c1,1.3,1.7,1.4,3.5,1.4h25.1c1.7,0,2.1-0.4,3-1.4h1.5c0.1,2.8,0.3,6.9,0.7,10.2L223.5,101.3z"/>
		<path class="st0" d="M273.9,94.1c-5.3,0.4-5.9,0.6-5.9,5.4V123c0,4.9,0.6,5,5.9,5.4v1.8h-17v-1.8c5.6-0.3,6.2-0.6,6.2-5.4v-11.5
			h-22.5V123c0,4.7,0.6,5,5.9,5.4v1.8h-16.6v-1.8c5.3-0.3,5.8-0.5,5.8-5.4V99.5c0-4.8-0.5-5-6-5.4v-1.8h16.4v1.8
			c-5,0.4-5.5,0.7-5.5,5.4v9.3h22.5v-9.3c0-4.7-0.5-5-5.6-5.4v-1.8h16.4V94.1z"/>
		<path class="st0" d="M318.9,110.8c0,12.7-9.6,20.2-21.3,20.2c-11.2,0-20.5-7.9-20.5-19.2c0-10.6,8.1-20.1,21.3-20.1
			C309,91.6,318.9,99,318.9,110.8z M283,110c0,11,6.9,18.6,16,18.6c7.2,0,13.8-5.1,13.8-16.4c0-12.3-7.5-18.4-15.9-18.4
			C289.8,93.9,283,98.9,283,110z"/>
		<path class="st0" d="M372.3,89.6c-4.1,0.2-6,1.1-6.4,3.8c-0.2,2-0.3,4.9-0.3,11.1v26.2h-2.3l-30.4-34.2h-0.2v16.3
			c0,6,0.2,9.2,0.3,11.1c0.5,3.3,2.3,4.1,7.1,4.3v2.1h-17.5v-2.1c4.2-0.1,6.1-1,6.5-4.2c0.2-2.1,0.5-5.3,0.5-11.2V98.4
			c0-4.8-0.2-4.8-1.4-6.4c-1.5-1.6-3.2-2.1-6.6-2.4v-2H332l30.1,33.4h0.2v-16.5c0-6.2-0.2-9.2-0.5-10.9c-0.4-2.9-2.2-3.8-7.2-4v-2
			h17.6V89.6z"/>
		<path class="st0" d="M96.4,158.3l-0.7-1.8c-0.4,0-0.7,0-1.1-0.1c-0.4,0-0.7,0-1.1,0c-0.3,0-0.7,0-1,0c-0.3,0-0.7,0-1,0.1
			c-0.3,0.7-0.5,1.3-0.8,2c-0.2,0.7-0.4,1.2-0.6,1.7c-0.1,0-0.2,0-0.4-0.1c-0.1,0-0.3,0-0.4,0c-0.1,0-0.3,0-0.4,0
			c-0.1,0-0.2,0-0.4,0.1l2-4.4c0.4-1,0.8-1.8,1.2-2.6s0.6-1.4,0.9-2c0.3-0.6,0.5-1.1,0.6-1.6c0.2-0.5,0.3-0.9,0.4-1.2
			c0.1,0,0.2,0,0.3,0.1c0.1,0,0.2,0,0.3,0c0.2,0,0.3,0,0.5-0.1c0.2,0.6,0.4,1.2,0.6,1.7c0.2,0.6,0.4,1.1,0.7,1.7
			c0.2,0.5,0.4,1,0.6,1.5c0.2,0.5,0.4,0.9,0.5,1.2c0.2,0.4,0.3,0.8,0.6,1.3c0.2,0.5,0.4,1,0.7,1.5s0.5,1,0.7,1.5
			c0.2,0.5,0.4,1,0.6,1.4c-0.1,0-0.3,0-0.6-0.1s-0.5,0-0.7,0c-0.2,0-0.5,0-0.7,0c-0.2,0-0.4,0-0.6,0.1L96.4,158.3z M93.6,151.2
			l-1.7,4.2c0.3,0,0.6,0,0.9,0c0.3,0,0.6,0,0.9,0c0.3,0,0.5,0,0.8,0c0.3,0,0.5,0,0.8-0.1L93.6,151.2z"/>
		<path class="st0" d="M102.8,157.6c0.2,0.4,0.4,0.8,0.6,1s0.4,0.5,0.6,0.6c0.2,0.1,0.4,0.2,0.7,0.3c0.2,0,0.5,0.1,0.7,0.1
			c0.3,0,0.6-0.1,0.9-0.2c0.3-0.1,0.5-0.3,0.7-0.4c0.2-0.2,0.3-0.4,0.5-0.7s0.2-0.5,0.2-0.8c0-0.3-0.1-0.6-0.2-0.9s-0.2-0.4-0.4-0.6
			c-0.2-0.2-0.3-0.3-0.5-0.3s-0.3-0.1-0.4-0.2c-0.2-0.1-0.5-0.2-0.9-0.4s-0.6-0.3-0.9-0.4c-0.4-0.2-0.8-0.4-1-0.6
			c-0.3-0.2-0.5-0.4-0.7-0.7c-0.2-0.2-0.3-0.5-0.3-0.8s-0.1-0.6-0.1-1c0-0.4,0.1-0.8,0.2-1.2s0.3-0.8,0.6-1.1
			c0.3-0.3,0.7-0.6,1.2-0.8c0.5-0.2,1.2-0.3,1.9-0.3c0.6,0,1.1,0.1,1.6,0.2c0.4,0.1,0.8,0.3,1.3,0.5c-0.1,0.2-0.2,0.4-0.2,0.5
			c-0.1,0.1-0.1,0.3-0.1,0.4c0,0.1-0.1,0.2-0.1,0.3s-0.1,0.2-0.1,0.4h-0.2c-0.1-0.5-0.4-0.9-0.8-1.1c-0.4-0.2-0.9-0.4-1.4-0.4
			c-0.7,0-1.2,0.2-1.5,0.5c-0.3,0.4-0.5,0.8-0.5,1.3c0,0.3,0.1,0.6,0.2,0.8c0.1,0.2,0.3,0.4,0.5,0.6c0.2,0.2,0.4,0.3,0.7,0.4
			s0.6,0.3,1,0.4c0.3,0.1,0.6,0.2,0.8,0.3c0.2,0.1,0.4,0.2,0.6,0.3c0.2,0.1,0.3,0.2,0.5,0.3c0.1,0.1,0.3,0.2,0.4,0.3
			c0.2,0.2,0.3,0.4,0.4,0.6c0.1,0.2,0.2,0.4,0.2,0.6s0.1,0.4,0.1,0.6c0,0.2,0,0.3,0,0.4c0,0.4-0.1,0.9-0.2,1.3
			c-0.2,0.4-0.4,0.8-0.8,1.2c-0.3,0.4-0.8,0.6-1.3,0.9c-0.5,0.2-1.2,0.3-2,0.3c-0.4,0-0.7,0-1-0.1c-0.3-0.1-0.6-0.1-0.9-0.2
			s-0.5-0.2-0.7-0.3c-0.2-0.1-0.4-0.2-0.5-0.3c0.1-0.2,0.1-0.4,0.2-0.6c0-0.2,0.1-0.3,0.1-0.4c0-0.1,0-0.3,0.1-0.4
			c0-0.1,0-0.3,0.1-0.5H102.8z"/>
		<path class="st0" d="M113.6,157.6c0.2,0.4,0.4,0.8,0.6,1s0.4,0.5,0.6,0.6c0.2,0.1,0.4,0.2,0.7,0.3c0.2,0,0.5,0.1,0.7,0.1
			c0.3,0,0.6-0.1,0.9-0.2c0.3-0.1,0.5-0.3,0.7-0.4c0.2-0.2,0.3-0.4,0.5-0.7s0.2-0.5,0.2-0.8c0-0.3-0.1-0.6-0.2-0.9s-0.2-0.4-0.4-0.6
			c-0.2-0.2-0.3-0.3-0.5-0.3s-0.3-0.1-0.4-0.2c-0.2-0.1-0.5-0.2-0.9-0.4s-0.6-0.3-0.9-0.4c-0.4-0.2-0.8-0.4-1-0.6
			c-0.3-0.2-0.5-0.4-0.7-0.7c-0.2-0.2-0.3-0.5-0.3-0.8s-0.1-0.6-0.1-1c0-0.4,0.1-0.8,0.2-1.2s0.3-0.8,0.6-1.1
			c0.3-0.3,0.7-0.6,1.2-0.8c0.5-0.2,1.2-0.3,1.9-0.3c0.6,0,1.1,0.1,1.6,0.2c0.4,0.1,0.8,0.3,1.3,0.5c-0.1,0.2-0.2,0.4-0.2,0.5
			c-0.1,0.1-0.1,0.3-0.1,0.4c0,0.1-0.1,0.2-0.1,0.3s-0.1,0.2-0.1,0.4h-0.2c-0.1-0.5-0.4-0.9-0.8-1.1c-0.4-0.2-0.9-0.4-1.4-0.4
			c-0.7,0-1.2,0.2-1.5,0.5c-0.3,0.4-0.5,0.8-0.5,1.3c0,0.3,0.1,0.6,0.2,0.8c0.1,0.2,0.3,0.4,0.5,0.6c0.2,0.2,0.4,0.3,0.7,0.4
			s0.6,0.3,1,0.4c0.3,0.1,0.6,0.2,0.8,0.3c0.2,0.1,0.4,0.2,0.6,0.3c0.2,0.1,0.3,0.2,0.5,0.3c0.1,0.1,0.3,0.2,0.4,0.3
			c0.2,0.2,0.3,0.4,0.4,0.6c0.1,0.2,0.2,0.4,0.2,0.6s0.1,0.4,0.1,0.6c0,0.2,0,0.3,0,0.4c0,0.4-0.1,0.9-0.2,1.3
			c-0.2,0.4-0.4,0.8-0.8,1.2c-0.3,0.4-0.8,0.6-1.3,0.9c-0.5,0.2-1.2,0.3-2,0.3c-0.4,0-0.7,0-1-0.1c-0.3-0.1-0.6-0.1-0.9-0.2
			s-0.5-0.2-0.7-0.3c-0.2-0.1-0.4-0.2-0.5-0.3c0.1-0.2,0.1-0.4,0.2-0.6c0-0.2,0.1-0.3,0.1-0.4c0-0.1,0-0.3,0.1-0.4
			c0-0.1,0-0.3,0.1-0.5H113.6z"/>
		<path class="st0" d="M126.7,153.5c0.2,0,0.5,0,0.8,0c0.3,0,0.7,0,1,0c0.4,0,0.7,0,1,0c0.3,0,0.6,0,0.8-0.1c0,0.1,0,0.2-0.1,0.3
			c0,0.1,0,0.2,0,0.3c0,0.2,0,0.4,0.1,0.6c-0.2,0-0.4,0-0.7-0.1c-0.2,0-0.4,0-0.6,0c-0.4,0-0.8,0-1.2,0s-0.8,0-1.2,0v4.6
			c0.1,0,0.3,0,0.6,0s0.6,0,1,0s0.8,0,1.2,0c0.4,0,0.8,0,1.2-0.1c-0.1,0.1-0.1,0.3-0.1,0.6c0,0.2,0,0.5,0.1,0.6
			c-1-0.1-2.1-0.1-3.1-0.1c-1,0-2.1,0-3.2,0.1c0-0.4,0-0.7,0.1-1.1s0-0.7,0-1.1c0-0.2,0-0.6,0-0.9c0-0.4,0-0.7,0-1.1
			c0-0.4,0-0.7,0-1.1c0-0.3,0-0.6,0-0.8c0-0.2,0-0.5,0-1c0-0.5,0-1,0-1.5c0-0.6,0-1.1,0-1.7c0-0.6,0-1.1-0.1-1.5c0.2,0,0.4,0,0.7,0
			c0.3,0,0.5,0,0.8,0c0.3,0,0.6,0,0.8,0c0.3,0,0.5,0,0.7,0c0.4,0,0.9,0,1.4,0c0.5,0,1.1,0,1.7-0.1c0,0.1,0,0.2-0.1,0.3
			c0,0.1,0,0.2,0,0.3c0,0.3,0,0.5,0.1,0.6l-1.6-0.1c-0.2,0-0.3,0-0.4,0c-0.1,0-0.3,0-0.4,0c-0.2,0-0.4,0-0.6,0c-0.2,0-0.5,0-0.9,0
			V153.5z"/>
		<path class="st0" d="M139,157.8c0,0.6,0,1.1,0,1.5s0.1,0.6,0.1,0.9c-0.2,0-0.5,0-0.7-0.1c-0.2,0-0.4,0-0.5,0c-0.1,0-0.3,0-0.5,0
			c-0.2,0-0.4,0-0.7,0.1c0-0.6,0.1-1.3,0.1-1.9s0.1-1.3,0.1-1.9l0-4.7c0-0.3,0-0.6,0-0.9c0-0.3,0-0.6,0-1H136c0,0-0.2,0-0.4,0
			c-0.2,0-0.4,0-0.7,0c-0.3,0-0.5,0-0.8,0c-0.3,0-0.5,0-0.8,0.1c0.1-0.2,0.1-0.4,0.1-0.6c0-0.2,0-0.4-0.1-0.6c0.3,0,0.7,0,1.1,0.1
			c0.4,0,0.8,0,1.2,0c0.4,0,0.8,0,1.2,0s0.7,0,1.1,0c0.7,0,1.4,0,2.2,0c0.7,0,1.5,0,2.3-0.1c-0.1,0.3-0.1,0.5-0.1,0.6
			c0,0.1,0,0.2,0,0.3c0,0.1,0,0.2,0.1,0.3c-0.5-0.1-1.1-0.1-1.6-0.1s-1.2,0-1.8,0c0,0.3,0,0.6,0,0.9c0,0.3,0,0.6,0,1V157.8z"/>
		<path class="st0" d="M154.1,149.6c0.3,0.6,0.5,1.1,0.7,1.5c0.2,0.4,0.4,0.9,0.7,1.3c0.2,0.4,0.5,0.9,0.8,1.4
			c0.3,0.5,0.6,1.1,1,1.9l0.9,1.6l0.6-1.1c0.4-0.7,0.8-1.3,1.1-1.9c0.3-0.6,0.6-1.1,0.9-1.7c0.3-0.6,0.6-1.2,1-1.8
			c0.3-0.6,0.7-1.4,1.1-2.3c0.1,0,0.2,0.1,0.4,0.1c0.1,0,0.2,0,0.4-0.1l0.1,1.4c0.1,1,0.2,2,0.3,2.9c0.1,1,0.2,1.9,0.4,3
			c0,0.3,0.1,0.6,0.1,1c0.1,0.4,0.1,0.8,0.2,1.2c0.1,0.4,0.1,0.8,0.2,1.2c0.1,0.4,0.1,0.7,0.2,0.9c-0.2,0-0.4,0-0.7-0.1
			c-0.2,0-0.4,0-0.6,0c-0.2,0-0.3,0-0.5,0c-0.2,0-0.4,0-0.7,0.1l-0.1-0.6c0-0.1,0-0.2,0-0.4c0-0.2,0-0.4,0-0.7c0-0.2,0-0.4,0-0.6
			s0-0.3,0-0.4c0-0.1,0-0.3-0.1-0.6c0-0.3-0.1-0.6-0.1-0.9c0-0.3-0.1-0.7-0.1-1c0-0.4-0.1-0.7-0.1-1c0-0.3-0.1-0.6-0.1-0.9
			c0-0.3,0-0.4-0.1-0.6c-0.3,0.5-0.6,1.1-1,1.7c-0.4,0.6-0.7,1.3-1.1,2c-0.4,0.7-0.7,1.4-1.1,2.1c-0.3,0.7-0.6,1.3-0.9,1.9
			c-0.1,0-0.1,0-0.2,0s-0.1,0-0.2,0s-0.1,0-0.2,0c-0.1,0-0.1,0-0.2,0c-0.2-0.3-0.3-0.6-0.5-0.9c-0.1-0.3-0.3-0.6-0.5-0.9
			c-0.2-0.3-0.4-0.7-0.6-1.1c-0.2-0.4-0.5-0.9-0.8-1.6c-0.1-0.1-0.2-0.3-0.3-0.6c-0.2-0.3-0.3-0.6-0.5-0.9s-0.4-0.6-0.5-0.9
			c-0.2-0.3-0.3-0.5-0.3-0.6c-0.2,1.2-0.3,2.4-0.4,3.7c-0.1,1.3-0.2,2.6-0.3,3.8c-0.3-0.1-0.6-0.1-0.8-0.1c-0.1,0-0.3,0-0.4,0
			c-0.1,0-0.2,0-0.3,0.1l0.1-0.5c0.1-0.4,0.2-0.8,0.2-1.4s0.2-1.2,0.3-2s0.2-1.5,0.3-2.2c0.1-0.8,0.2-1.5,0.3-2.2
			c0.1-0.7,0.2-1.4,0.3-1.9s0.1-1,0.2-1.4c0.1,0,0.3,0.1,0.4,0.1c0.1,0,0.1,0,0.2,0c0.1,0,0.1,0,0.2,0L154.1,149.6z"/>
		<path class="st0" d="M175.4,158.3l-0.7-1.8c-0.4,0-0.7,0-1.1-0.1c-0.4,0-0.7,0-1.1,0c-0.3,0-0.7,0-1,0c-0.3,0-0.7,0-1,0.1
			c-0.3,0.7-0.5,1.3-0.8,2c-0.2,0.7-0.4,1.2-0.6,1.7c-0.1,0-0.2,0-0.4-0.1c-0.1,0-0.3,0-0.4,0c-0.1,0-0.3,0-0.4,0
			c-0.1,0-0.2,0-0.4,0.1l2-4.4c0.4-1,0.8-1.8,1.2-2.6s0.6-1.4,0.9-2c0.3-0.6,0.5-1.1,0.6-1.6c0.2-0.5,0.3-0.9,0.4-1.2
			c0.1,0,0.2,0,0.3,0.1c0.1,0,0.2,0,0.3,0c0.2,0,0.3,0,0.5-0.1c0.2,0.6,0.4,1.2,0.6,1.7c0.2,0.6,0.4,1.1,0.7,1.7
			c0.2,0.5,0.4,1,0.6,1.5c0.2,0.5,0.4,0.9,0.5,1.2c0.2,0.4,0.3,0.8,0.6,1.3c0.2,0.5,0.4,1,0.7,1.5s0.5,1,0.7,1.5
			c0.2,0.5,0.4,1,0.6,1.4c-0.1,0-0.3,0-0.6-0.1s-0.5,0-0.7,0c-0.2,0-0.5,0-0.7,0c-0.2,0-0.4,0-0.6,0.1L175.4,158.3z M172.6,151.2
			l-1.7,4.2c0.3,0,0.6,0,0.9,0c0.3,0,0.6,0,0.9,0c0.3,0,0.5,0,0.8,0c0.3,0,0.5,0,0.8-0.1L172.6,151.2z"/>
		<path class="st0" d="M181.9,153.3c0-0.8,0-1.6,0-2.4c0-0.8,0-1.6,0-2.4c0.1,0,0.1,0,0.2,0c0.1,0,0.1,0,0.2,0c0.1,0,0.1,0,0.2,0
			c0.1,0,0.1,0,0.2,0c0.4,0.4,0.8,0.9,1.2,1.3c0.4,0.4,0.8,0.9,1.2,1.3c0.4,0.4,0.9,0.9,1.3,1.3c0.5,0.5,0.9,0.9,1.4,1.4l2,2
			c0.2,0.2,0.3,0.3,0.4,0.4c0.1,0.1,0.3,0.2,0.5,0.4v-3.8c0-0.7,0-1.4-0.1-2.2c0-0.7-0.1-1.4-0.1-2.1c0.1,0,0.2,0,0.3,0.1
			s0.2,0,0.4,0c0.2,0,0.3,0,0.4,0s0.2,0,0.3-0.1c0,0.5-0.1,1-0.1,1.4c0,0.4,0,0.9-0.1,1.3s0,0.9,0,1.4s0,1,0,1.7c0,0.2,0,0.6,0,1
			c0,0.4,0,0.8,0,1.2c0,0.4,0,0.8,0,1.2c0,0.4,0,0.7,0,0.9c0,0.1,0,0.2,0,0.4c0,0.1,0,0.3,0,0.5s0,0.3,0,0.5c0,0.2,0,0.3,0,0.4
			c-0.1,0-0.1,0-0.2,0s-0.1,0-0.2,0s-0.1,0-0.2,0s-0.1,0-0.2,0c-0.4-0.4-0.8-0.8-1.2-1.3c-0.5-0.5-0.9-1-1.4-1.5
			c-0.5-0.5-1-1-1.5-1.5c-0.5-0.5-1-1-1.5-1.5c-0.5-0.5-0.9-0.9-1.4-1.3s-0.8-0.7-1.1-1c0,0.6,0,1.1,0,1.6s0,0.9,0,1.3
			c0,0.4,0,0.8,0,1.2s0,0.8,0,1.3c0,0.2,0,0.5,0,0.6c0,0.2,0,0.3,0,0.5c0,0.2,0,0.4,0,0.6s0,0.6,0.1,0.9c-0.1,0-0.2,0-0.4-0.1
			c-0.1,0-0.3,0-0.4,0c-0.1,0-0.2,0-0.4,0c-0.1,0-0.2,0-0.3,0.1l0.1-2.4c0-0.1,0-0.3,0-0.5s0-0.4,0-0.6c0-0.2,0-0.4,0-0.6
			c0-0.2,0-0.4,0-0.5V153.3z"/>
		<path class="st0" d="M202.7,158.3l-0.7-1.8c-0.4,0-0.7,0-1.1-0.1c-0.4,0-0.7,0-1.1,0c-0.3,0-0.7,0-1,0c-0.3,0-0.7,0-1,0.1
			c-0.3,0.7-0.5,1.3-0.8,2c-0.2,0.7-0.4,1.2-0.6,1.7c-0.1,0-0.2,0-0.4-0.1c-0.1,0-0.3,0-0.4,0c-0.1,0-0.3,0-0.4,0
			c-0.1,0-0.2,0-0.4,0.1l2-4.4c0.4-1,0.8-1.8,1.2-2.6s0.6-1.4,0.9-2c0.3-0.6,0.5-1.1,0.6-1.6s0.3-0.9,0.4-1.2c0.1,0,0.2,0,0.3,0.1
			s0.2,0,0.3,0c0.2,0,0.3,0,0.5-0.1c0.2,0.6,0.4,1.2,0.6,1.7c0.2,0.6,0.4,1.1,0.7,1.7c0.2,0.5,0.4,1,0.6,1.5
			c0.2,0.5,0.4,0.9,0.5,1.2c0.2,0.4,0.3,0.8,0.6,1.3c0.2,0.5,0.4,1,0.7,1.5c0.2,0.5,0.5,1,0.7,1.5s0.4,1,0.6,1.4
			c-0.1,0-0.3,0-0.6-0.1s-0.5,0-0.7,0s-0.5,0-0.7,0s-0.4,0-0.6,0.1L202.7,158.3z M199.9,151.2l-1.7,4.2c0.3,0,0.6,0,0.9,0
			c0.3,0,0.6,0,0.9,0c0.3,0,0.5,0,0.8,0c0.3,0,0.5,0,0.8-0.1L199.9,151.2z"/>
		<path class="st0" d="M207.8,154.5c0-0.9,0.1-1.6,0.4-2.4c0.3-0.7,0.7-1.4,1.2-2c0.5-0.6,1.2-1,2.1-1.3s1.8-0.5,2.9-0.5
			c0.7,0,1.4,0.1,2,0.2c0.6,0.1,1.3,0.3,2,0.7l-0.5,1.7h-0.2c-0.1-0.1-0.1-0.2-0.3-0.4c-0.1-0.2-0.3-0.4-0.5-0.5
			c-0.2-0.2-0.6-0.3-1-0.5c-0.4-0.1-0.9-0.2-1.5-0.2c-1.4,0-2.5,0.4-3.2,1.3c-0.7,0.9-1.1,2.1-1.1,3.8c0,0.6,0.1,1.3,0.2,1.9
			s0.4,1.2,0.8,1.7c0.1,0.2,0.3,0.4,0.5,0.6c0.2,0.2,0.4,0.3,0.7,0.5s0.5,0.3,0.8,0.3s0.7,0.1,1,0.1c0.4,0,0.8,0,1.2-0.1
			s0.8-0.2,1.2-0.5c0-0.3,0-0.5,0-0.7c0-0.2,0-0.3,0-0.4c0-0.1,0-0.2,0-0.2s0-0.1,0-0.2c0-0.4,0-0.8,0-1.2c0-0.4,0-0.8-0.1-1.2
			c0.2,0,0.4,0,0.6,0.1s0.4,0,0.6,0c0.2,0,0.4,0,0.6,0c0.1,0,0.3-0.1,0.5-0.1c0,0.2,0,0.4-0.1,0.6c0,0.3,0,0.6,0,0.8
			c0,0.3,0,0.6,0,0.8s0,0.4,0,0.6c0,0.3,0,0.6,0,0.8s0,0.5,0,0.7c-0.7,0.4-1.5,0.7-2.4,0.9s-1.7,0.3-2.5,0.3c-0.8,0-1.6-0.1-2.3-0.4
			s-1.4-0.6-1.9-1.1s-1-1.1-1.3-1.8C208,156.3,207.8,155.5,207.8,154.5z"/>
		<path class="st0" d="M225.6,153.5c0.2,0,0.5,0,0.8,0s0.7,0,1,0c0.4,0,0.7,0,1,0c0.3,0,0.6,0,0.8-0.1c0,0.1,0,0.2-0.1,0.3
			c0,0.1,0,0.2,0,0.3c0,0.2,0,0.4,0.1,0.6c-0.2,0-0.4,0-0.7-0.1c-0.2,0-0.4,0-0.6,0c-0.4,0-0.8,0-1.2,0s-0.8,0-1.2,0v4.6
			c0.1,0,0.3,0,0.6,0c0.3,0,0.6,0,1,0c0.4,0,0.8,0,1.2,0c0.4,0,0.8,0,1.2-0.1c-0.1,0.1-0.1,0.3-0.1,0.6c0,0.2,0,0.5,0.1,0.6
			c-1-0.1-2.1-0.1-3.1-0.1c-1,0-2.1,0-3.2,0.1c0-0.4,0-0.7,0.1-1.1s0-0.7,0-1.1c0-0.2,0-0.6,0-0.9c0-0.4,0-0.7,0-1.1s0-0.7,0-1.1
			c0-0.3,0-0.6,0-0.8c0-0.2,0-0.5,0-1s0-1,0-1.5c0-0.6,0-1.1,0-1.7c0-0.6,0-1.1-0.1-1.5c0.2,0,0.4,0,0.7,0c0.3,0,0.5,0,0.8,0
			c0.3,0,0.6,0,0.8,0c0.3,0,0.5,0,0.7,0c0.4,0,0.9,0,1.4,0s1.1,0,1.7-0.1c0,0.1,0,0.2-0.1,0.3c0,0.1,0,0.2,0,0.3
			c0,0.3,0,0.5,0.1,0.6l-1.6-0.1c-0.2,0-0.3,0-0.4,0s-0.3,0-0.4,0c-0.2,0-0.4,0-0.6,0c-0.2,0-0.5,0-0.9,0V153.5z"/>
		<path class="st0" d="M235.7,149.6c0.3,0.6,0.5,1.1,0.7,1.5c0.2,0.4,0.4,0.9,0.7,1.3s0.5,0.9,0.8,1.4c0.3,0.5,0.6,1.1,1,1.9
			l0.9,1.6l0.6-1.1c0.4-0.7,0.8-1.3,1.1-1.9c0.3-0.6,0.6-1.1,0.9-1.7c0.3-0.6,0.6-1.2,1-1.8c0.3-0.6,0.7-1.4,1.1-2.3
			c0.1,0,0.2,0.1,0.4,0.1c0.1,0,0.2,0,0.4-0.1l0.1,1.4c0.1,1,0.2,2,0.3,2.9c0.1,1,0.2,1.9,0.4,3c0,0.3,0.1,0.6,0.1,1
			c0.1,0.4,0.1,0.8,0.2,1.2c0.1,0.4,0.1,0.8,0.2,1.2c0.1,0.4,0.1,0.7,0.2,0.9c-0.2,0-0.4,0-0.7-0.1c-0.2,0-0.4,0-0.6,0
			c-0.2,0-0.3,0-0.5,0c-0.2,0-0.4,0-0.7,0.1l-0.1-0.6c0-0.1,0-0.2,0-0.4c0-0.2,0-0.4,0-0.7c0-0.2,0-0.4,0-0.6c0-0.2,0-0.3,0-0.4
			c0-0.1,0-0.3-0.1-0.6c0-0.3-0.1-0.6-0.1-0.9c0-0.3-0.1-0.7-0.1-1c0-0.4-0.1-0.7-0.1-1c0-0.3-0.1-0.6-0.1-0.9c0-0.3,0-0.4-0.1-0.6
			c-0.3,0.5-0.6,1.1-1,1.7c-0.4,0.6-0.7,1.3-1.1,2c-0.4,0.7-0.7,1.4-1.1,2.1c-0.3,0.7-0.6,1.3-0.9,1.9c-0.1,0-0.1,0-0.2,0
			c-0.1,0-0.1,0-0.2,0c-0.1,0-0.1,0-0.2,0s-0.1,0-0.2,0c-0.2-0.3-0.3-0.6-0.5-0.9c-0.1-0.3-0.3-0.6-0.5-0.9
			c-0.2-0.3-0.4-0.7-0.6-1.1c-0.2-0.4-0.5-0.9-0.8-1.6c-0.1-0.1-0.2-0.3-0.3-0.6c-0.2-0.3-0.3-0.6-0.5-0.9s-0.4-0.6-0.5-0.9
			s-0.3-0.5-0.3-0.6c-0.2,1.2-0.3,2.4-0.4,3.7c-0.1,1.3-0.2,2.6-0.3,3.8c-0.3-0.1-0.6-0.1-0.8-0.1c-0.1,0-0.3,0-0.4,0
			c-0.1,0-0.2,0-0.3,0.1l0.1-0.5c0.1-0.4,0.2-0.8,0.2-1.4c0.1-0.6,0.2-1.2,0.3-2c0.1-0.7,0.2-1.5,0.3-2.2s0.2-1.5,0.3-2.2
			c0.1-0.7,0.2-1.4,0.3-1.9c0.1-0.6,0.1-1,0.2-1.4c0.1,0,0.3,0.1,0.4,0.1c0.1,0,0.1,0,0.2,0c0.1,0,0.1,0,0.2,0L235.7,149.6z"/>
		<path class="st0" d="M252.9,153.5c0.2,0,0.5,0,0.8,0s0.7,0,1,0c0.4,0,0.7,0,1,0c0.3,0,0.6,0,0.8-0.1c0,0.1,0,0.2-0.1,0.3
			c0,0.1,0,0.2,0,0.3c0,0.2,0,0.4,0.1,0.6c-0.2,0-0.4,0-0.7-0.1c-0.2,0-0.4,0-0.6,0c-0.4,0-0.8,0-1.2,0s-0.8,0-1.2,0v4.6
			c0.1,0,0.3,0,0.6,0c0.3,0,0.6,0,1,0c0.4,0,0.8,0,1.2,0c0.4,0,0.8,0,1.2-0.1c-0.1,0.1-0.1,0.3-0.1,0.6c0,0.2,0,0.5,0.1,0.6
			c-1-0.1-2.1-0.1-3.1-0.1c-1,0-2.1,0-3.2,0.1c0-0.4,0-0.7,0.1-1.1s0-0.7,0-1.1c0-0.2,0-0.6,0-0.9c0-0.4,0-0.7,0-1.1s0-0.7,0-1.1
			c0-0.3,0-0.6,0-0.8c0-0.2,0-0.5,0-1s0-1,0-1.5c0-0.6,0-1.1,0-1.7c0-0.6,0-1.1-0.1-1.5c0.2,0,0.4,0,0.7,0c0.3,0,0.5,0,0.8,0
			c0.3,0,0.6,0,0.8,0c0.3,0,0.5,0,0.7,0c0.4,0,0.9,0,1.4,0s1.1,0,1.7-0.1c0,0.1,0,0.2-0.1,0.3c0,0.1,0,0.2,0,0.3
			c0,0.3,0,0.5,0.1,0.6l-1.6-0.1c-0.2,0-0.3,0-0.4,0s-0.3,0-0.4,0c-0.2,0-0.4,0-0.6,0c-0.2,0-0.5,0-0.9,0V153.5z"/>
		<path class="st0" d="M260.9,153.3c0-0.8,0-1.6,0-2.4c0-0.8,0-1.6,0-2.4c0.1,0,0.1,0,0.2,0c0.1,0,0.1,0,0.2,0c0.1,0,0.1,0,0.2,0
			c0.1,0,0.1,0,0.2,0c0.4,0.4,0.8,0.9,1.2,1.3s0.8,0.9,1.2,1.3c0.4,0.4,0.9,0.9,1.3,1.3s0.9,0.9,1.4,1.4l2,2
			c0.2,0.2,0.3,0.3,0.4,0.4c0.1,0.1,0.3,0.2,0.5,0.4v-3.8c0-0.7,0-1.4-0.1-2.2s-0.1-1.4-0.1-2.1c0.1,0,0.2,0,0.3,0.1s0.2,0,0.4,0
			c0.2,0,0.3,0,0.4,0c0.1,0,0.2,0,0.3-0.1c0,0.5-0.1,1-0.1,1.4s0,0.9-0.1,1.3s0,0.9,0,1.4s0,1,0,1.7c0,0.2,0,0.6,0,1
			c0,0.4,0,0.8,0,1.2c0,0.4,0,0.8,0,1.2c0,0.4,0,0.7,0,0.9c0,0.1,0,0.2,0,0.4c0,0.1,0,0.3,0,0.5s0,0.3,0,0.5c0,0.2,0,0.3,0,0.4
			c-0.1,0-0.1,0-0.2,0s-0.1,0-0.2,0s-0.1,0-0.2,0s-0.1,0-0.2,0c-0.4-0.4-0.8-0.8-1.2-1.3c-0.5-0.5-0.9-1-1.4-1.5
			c-0.5-0.5-1-1-1.5-1.5c-0.5-0.5-1-1-1.5-1.5c-0.5-0.5-0.9-0.9-1.4-1.3c-0.4-0.4-0.8-0.7-1.1-1c0,0.6,0,1.1,0,1.6s0,0.9,0,1.3
			c0,0.4,0,0.8,0,1.2s0,0.8,0,1.3c0,0.2,0,0.5,0,0.6s0,0.3,0,0.5c0,0.2,0,0.4,0,0.6c0,0.2,0,0.6,0.1,0.9c-0.1,0-0.2,0-0.4-0.1
			s-0.3,0-0.4,0c-0.1,0-0.2,0-0.4,0c-0.1,0-0.2,0-0.3,0.1l0.1-2.4c0-0.1,0-0.3,0-0.5c0-0.2,0-0.4,0-0.6c0-0.2,0-0.4,0-0.6
			c0-0.2,0-0.4,0-0.5V153.3z"/>
		<path class="st0" d="M279.8,157.8c0,0.6,0,1.1,0,1.5c0,0.3,0.1,0.6,0.1,0.9c-0.2,0-0.5,0-0.7-0.1c-0.2,0-0.4,0-0.5,0
			c-0.1,0-0.3,0-0.5,0c-0.2,0-0.4,0-0.7,0.1c0-0.6,0.1-1.3,0.1-1.9c0-0.7,0.1-1.3,0.1-1.9l0-4.7c0-0.3,0-0.6,0-0.9c0-0.3,0-0.6,0-1
			h-0.8c0,0-0.2,0-0.4,0s-0.4,0-0.7,0c-0.3,0-0.5,0-0.8,0c-0.3,0-0.5,0-0.8,0.1c0.1-0.2,0.1-0.4,0.1-0.6c0-0.2,0-0.4-0.1-0.6
			c0.3,0,0.7,0,1.1,0.1c0.4,0,0.8,0,1.2,0c0.4,0,0.8,0,1.2,0c0.4,0,0.7,0,1.1,0c0.7,0,1.4,0,2.2,0c0.7,0,1.5,0,2.3-0.1
			c-0.1,0.3-0.1,0.5-0.1,0.6c0,0.1,0,0.2,0,0.3c0,0.1,0,0.2,0.1,0.3c-0.5-0.1-1.1-0.1-1.6-0.1s-1.2,0-1.8,0c0,0.3,0,0.6,0,0.9
			s0,0.6,0,1V157.8z"/>
	</g>
	<g>
		<g>
			<path class="st1" d="M183.8,11.1c0.2,0,0.3,0,0.5,0c7.3-0.1,14.6,2.6,20.2,8c0,0,0,0,0.1,0.1c0,0,0,0,0.1,0.1
				c5.6,5.5,8.4,12.7,8.5,20c0,0.2,0,0.3,0,0.5c0,0.2,0,0.3,0,0.5c0.1,7.3-2.6,14.6-8,20.2c0,0,0,0-0.1,0.1c0,0,0,0-0.1,0.1
				c-5.5,5.6-12.7,8.4-20,8.5c-0.2,0-0.3,0-0.5,0c-0.2,0-0.3,0-0.5,0c-7.3,0.1-14.6-2.6-20.2-8c0,0,0,0-0.1-0.1c0,0,0,0-0.1-0.1
				c-5.6-5.5-8.4-12.7-8.5-20c0-0.2,0-0.3,0-0.5c0-0.2,0-0.3,0-0.5c-0.1-7.3,2.6-14.6,8-20.2c0,0,0,0,0.1-0.1c0,0,0,0,0.1-0.1
				c5.5-5.6,12.7-8.4,20-8.5C183.5,11.1,183.6,11.1,183.8,11.1z"/>
			<g>
				<path class="st0" d="M172.5,15.5c0.5,0.4,1,0.6,1.6,0.8c0.9,0.3,1.9,0.4,2.8,0.3c0.8-0.1,2.3-0.3,2.8-0.9
					c-0.7-1-2.3-1.5-3.4-1.8c-1.1-0.3-2.3-0.3-3.4,0.1c-0.4,0.1-0.9,0.4-0.8,0.9C172.1,15.1,172.3,15.3,172.5,15.5z"/>
				<path class="st0" d="M174.7,13.1c2-1,3.5-2.9,3.9-5.1c0,0,0,0,0,0c-1.2,0.2-2.3,0.6-3.3,1.2c-1,0.6-1.8,1.5-2.3,2.6
					C172.2,13.3,173.5,13.7,174.7,13.1z"/>
			</g>
			<path class="st0" d="M167.5,18.3c0.5,0.3,1.1,0.4,1.7,0.5c1,0.1,1.9,0,2.8-0.3c0.8-0.2,2.2-0.7,2.6-1.5c-0.9-0.8-2.5-1-3.7-1.1
				c-1.1-0.1-2.3,0.2-3.3,0.8c-0.4,0.2-0.7,0.6-0.6,1C167.1,18,167.3,18.2,167.5,18.3z"/>
			<path class="st0" d="M169.2,15.5c1.7-1.4,2.8-3.6,2.7-5.8c0,0,0,0,0,0c-1.1,0.4-2.1,1.1-3,1.9c-0.8,0.8-1.5,1.9-1.8,3
				C166.9,16.3,168.1,16.3,169.2,15.5z"/>
			<path class="st0" d="M162.7,21.7c0.1,0.2,0.4,0.4,0.6,0.4c0.6,0.2,1.2,0.2,1.7,0.1c1-0.1,1.9-0.4,2.7-0.9c0.7-0.4,2-1.2,2.2-2
				c-1-0.6-2.7-0.5-3.8-0.3c-1.1,0.2-2.2,0.7-3.1,1.5C162.7,20.8,162.5,21.3,162.7,21.7z"/>
			<path class="st0" d="M164.4,19c1.4-1.7,2-4.1,1.5-6.2c0,0,0,0,0,0c-1,0.7-1.9,1.5-2.5,2.4c-0.7,1-1.1,2.1-1.1,3.3
				C162.2,20.3,163.5,20,164.4,19z"/>
			<path class="st0" d="M159.4,25.2c-0.2,0.4-0.4,0.9-0.2,1.2c0.2,0.2,0.5,0.3,0.7,0.3c0.6,0,1.2-0.1,1.7-0.3
				c0.9-0.3,1.8-0.8,2.5-1.4c0.6-0.5,1.7-1.6,1.7-2.4c-1.2-0.4-2.7,0.1-3.8,0.5C161,23.6,160,24.3,159.4,25.2z"/>
			<path class="st0" d="M160.3,23.4c1-2,1.1-4.4,0.1-6.4c0,0,0,0,0,0c-0.8,0.8-1.5,1.8-1.9,2.9c-0.4,1.1-0.6,2.3-0.4,3.5
				C158.5,25.1,159.7,24.7,160.3,23.4z"/>
			<path class="st0" d="M156.9,31.8c0.2,0.2,0.5,0.2,0.8,0.1c0.6-0.1,1.1-0.3,1.6-0.6c0.8-0.5,1.6-1.1,2.1-1.9
				c0.5-0.6,1.3-1.9,1.2-2.7c-1.2-0.2-2.7,0.6-3.6,1.3c-1,0.6-1.8,1.5-2.2,2.6C156.6,31,156.5,31.5,156.9,31.8z"/>
			<path class="st0" d="M157.3,28.6c0.6-2.1,0.2-4.5-1.2-6.3c0,0,0,0,0,0c-0.6,1-1.1,2.1-1.3,3.3c-0.2,1.2-0.1,2.4,0.3,3.5
				C155.9,30.7,156.9,30,157.3,28.6z"/>
			<path class="st0" d="M156.4,37.5c0.6-0.2,1-0.5,1.5-0.9c0.7-0.6,1.3-1.4,1.7-2.3c0.3-0.7,0.9-2.1,0.6-2.9c-1.2,0.1-2.5,1.2-3.3,2
				c-0.8,0.8-1.4,1.9-1.6,3c-0.1,0.4,0,1,0.3,1.2C155.9,37.6,156.2,37.6,156.4,37.5z"/>
			<path class="st0" d="M153.4,35.2c1,1.4,1.9,0.5,2-0.8c0.2-2.2-0.8-4.5-2.5-5.9c0,0,0,0,0,0c-0.4,1.1-0.6,2.3-0.6,3.5
				C152.4,33,152.8,34.2,153.4,35.2z"/>
			<path class="st0" d="M155.7,43.4c0.3,0.1,0.5,0,0.8-0.2c0.5-0.3,0.9-0.7,1.3-1.2c0.6-0.8,1-1.7,1.2-2.6c0.2-0.8,0.4-2.2,0-2.9
				c-1.2,0.3-2.2,1.7-2.8,2.6c-0.6,1-1,2.1-1,3.3C155.1,42.7,155.2,43.3,155.7,43.4z"/>
			<path class="st0" d="M153,41.5c1.3,1.2,2,0.1,1.8-1.2c-0.3-2.2-1.7-4.2-3.6-5.3c0,0,0,0,0,0c-0.2,1.2-0.1,2.4,0.1,3.5
				C151.6,39.7,152.2,40.7,153,41.5z"/>
			<path class="st0" d="M156.9,49.1c0.3,0,0.5-0.2,0.7-0.3c0.4-0.4,0.7-0.9,1-1.5c0.4-0.9,0.6-1.8,0.6-2.8c0-0.8,0-2.3-0.6-2.9
				c-1.1,0.6-1.8,2.1-2.2,3.2c-0.4,1.1-0.6,2.3-0.3,3.4C156.2,48.6,156.5,49.1,156.9,49.1z"/>
			<path class="st0" d="M153.9,47.9c1.5,0.9,2-0.3,1.5-1.6c-0.8-2.1-2.5-3.8-4.7-4.4c0,0,0,0,0,0c0.1,1.2,0.3,2.3,0.9,3.4
				C152.1,46.3,152.9,47.3,153.9,47.9z"/>
			<path class="st0" d="M159.3,54.4c0.3,0,0.5-0.3,0.6-0.5c0.3-0.5,0.5-1.1,0.6-1.6c0.2-0.9,0.2-1.9,0-2.9c-0.2-0.8-0.5-2.2-1.2-2.7
				c-0.9,0.8-1.3,2.4-1.5,3.6c-0.2,1.1-0.1,2.3,0.4,3.4C158.5,54.1,158.9,54.5,159.3,54.4z"/>
			<path class="st0" d="M157.3,52c-1.2-1.9-3.3-3.2-5.5-3.3c0,0,0,0,0,0c0.3,1.1,0.8,2.2,1.6,3.1c0.7,0.9,1.7,1.7,2.8,2.1
				C157.8,54.4,158,53.1,157.3,52z"/>
			<path class="st0" d="M161.7,58.6c0.3,0.3,0.7,0.7,1.1,0.5c0.3-0.1,0.4-0.4,0.5-0.6c0.2-0.5,0.3-1.1,0.3-1.7c0-1-0.2-1.9-0.6-2.8
				c-0.3-0.7-1-2.1-1.7-2.4c-0.7,1-0.8,2.6-0.7,3.8C160.6,56.6,160.9,57.7,161.7,58.6z"/>
			<path class="st0" d="M160.3,57.2c-1.5-1.6-3.8-2.4-6-2.1c0,0,0,0,0,0c0.6,1,1.3,2,2.2,2.7c0.9,0.8,2,1.3,3.2,1.4
				C161.3,59.5,161.2,58.2,160.3,57.2z"/>
			<path class="st0" d="M164.1,56c-0.5,1.1-0.2,2.7,0.1,3.9c0.3,1.1,0.9,2.2,1.8,2.9c0.3,0.3,0.8,0.5,1.2,0.3
				c0.2-0.1,0.3-0.4,0.4-0.7c0.1-0.6,0.1-1.2-0.1-1.7c-0.2-0.9-0.6-1.8-1.2-2.6C165.8,57.4,164.9,56.2,164.1,56z"/>
			<path class="st0" d="M164,63.8c1.8-0.2,1.4-1.4,0.3-2.2c-1.8-1.2-4.3-1.6-6.4-0.8c0,0,0,0,0,0c0.8,0.9,1.7,1.7,2.7,2.2
				C161.6,63.6,162.8,63.9,164,63.8z"/>
			<path class="st0" d="M170.3,61.2c-0.6-0.5-1.7-1.5-2.5-1.5c-0.3,1.2,0.4,2.7,0.9,3.7c0.5,1,1.3,1.9,2.3,2.5
				c0.4,0.2,0.9,0.3,1.2,0c0.2-0.2,0.2-0.5,0.2-0.8c0-0.6-0.2-1.2-0.4-1.7C171.6,62.7,171,61.9,170.3,61.2z"/>
			<path class="st0" d="M169.1,65.2c-2.1-0.8-4.5-0.6-6.4,0.5c0,0,0,0,0,0c0.9,0.7,2,1.3,3.1,1.6c1.1,0.3,2.4,0.4,3.5,0
				C171,66.8,170.4,65.7,169.1,65.2z"/>
			<path class="st0" d="M176.6,68c0.4,0.1,1,0.1,1.2-0.2c0.1-0.2,0.1-0.5,0.1-0.8c-0.1-0.6-0.4-1.1-0.8-1.6
				c-0.6-0.8-1.3-1.4-2.1-1.9c-0.7-0.4-2-1.1-2.8-0.9c0,1.2,0.9,2.6,1.7,3.5C174.5,67,175.5,67.7,176.6,68z"/>
			<path class="st0" d="M174.6,67.6c-2.2-0.4-4.5,0.3-6.1,1.8c0,0,0,0,0,0c1.1,0.5,2.2,0.9,3.4,0.9c1.2,0.1,2.4-0.1,3.4-0.7
				C176.8,68.9,175.9,67.9,174.6,67.6z"/>
			<path class="st0" d="M182.4,66.2c-0.7-0.6-1.6-1.1-2.5-1.4c-0.7-0.3-2.2-0.7-2.9-0.3c0.2,1.2,1.4,2.3,2.3,3.1
				c0.9,0.7,2,1.2,3.1,1.3c0.4,0,1-0.1,1.1-0.5c0.1-0.3,0-0.5-0.1-0.8C183.2,67.1,182.8,66.6,182.4,66.2z"/>
			<path class="st0" d="M180.4,68.9c-2.2,0.1-4.4,1.2-5.6,3.1c0,0,0,0,0,0c1.1,0.3,2.3,0.4,3.5,0.2c1.2-0.2,2.3-0.6,3.2-1.4
				C182.8,69.7,181.8,68.9,180.4,68.9z"/>
			<path class="st0" d="M192.2,16.7c1,0.1,1.9,0,2.8-0.3c0.6-0.2,1.1-0.4,1.5-0.8c0.2-0.2,0.4-0.4,0.4-0.7c0-0.4-0.4-0.7-0.8-0.9
				c-1.1-0.4-2.3-0.4-3.4-0.1c-1.1,0.3-2.7,0.9-3.4,1.9C189.9,16.5,191.4,16.7,192.2,16.7z"/>
			<path class="st0" d="M194.3,13.2c1.2,0.6,2.5,0.3,1.7-1.3c-0.5-1.1-1.4-1.9-2.4-2.6c-1-0.6-2.1-1-3.3-1.2c0,0,0,0,0,0
				C190.8,10.3,192.3,12.2,194.3,13.2z"/>
			<path class="st0" d="M201.4,16.8c-1-0.6-2.2-0.8-3.3-0.8c-1.2,0.1-2.8,0.3-3.7,1.1c0.4,0.7,1.8,1.2,2.6,1.5
				c0.9,0.3,1.9,0.4,2.9,0.3c0.6-0.1,1.2-0.2,1.7-0.5c0.2-0.1,0.5-0.3,0.5-0.6C202.2,17.4,201.8,17,201.4,16.8z"/>
			<path class="st0" d="M199.8,15.6c1.1,0.8,2.4,0.8,2-0.9c-0.3-1.1-0.9-2.2-1.8-3c-0.8-0.8-1.9-1.4-3-1.9c0,0,0,0,0,0
				C197,12,198.1,14.2,199.8,15.6z"/>
			<path class="st0" d="M199.1,19.5c0.2,0.8,1.5,1.6,2.2,2c0.8,0.5,1.8,0.8,2.7,0.9c0.6,0.1,1.2,0,1.7-0.1c0.3-0.1,0.5-0.2,0.6-0.4
				c0.2-0.4-0.1-0.8-0.4-1.1c-0.8-0.8-1.9-1.3-3.1-1.4C201.8,19,200.1,18.9,199.1,19.5z"/>
			<path class="st0" d="M206.8,18.6c0-1.2-0.4-2.3-1.1-3.3c-0.7-1-1.5-1.8-2.5-2.4c0,0,0,0,0,0c-0.5,2.2,0.1,4.5,1.5,6.2
				C205.6,20.1,206.9,20.3,206.8,18.6z"/>
			<path class="st0" d="M203.2,22.8c0.1,0.8,1.2,1.9,1.8,2.4c0.7,0.6,1.6,1.1,2.5,1.4c0.6,0.2,1.1,0.3,1.7,0.2
				c0.3,0,0.6-0.1,0.7-0.3c0.3-0.3,0.1-0.8-0.2-1.2c-0.7-0.9-1.6-1.6-2.7-2C205.9,22.8,204.3,22.3,203.2,22.8z"/>
			<path class="st0" d="M210.9,23.4c0.2-1.2,0-2.4-0.4-3.5c-0.4-1.1-1.1-2.1-2-2.9c0,0,0,0,0,0c-0.9,2-0.9,4.5,0.2,6.4
				C209.4,24.7,210.6,25.2,210.9,23.4z"/>
			<path class="st0" d="M206.5,26.8c-0.1,0.8,0.7,2.1,1.2,2.7c0.6,0.8,1.3,1.4,2.1,1.9c0.5,0.3,1.1,0.5,1.6,0.6c0.3,0,0.6,0,0.8-0.1
				c0.3-0.3,0.3-0.8,0.1-1.2c-0.4-1.1-1.3-1.9-2.2-2.6C209.2,27.4,207.7,26.6,206.5,26.8z"/>
			<path class="st0" d="M213.9,29.1c0.5-1.1,0.5-2.3,0.3-3.5c-0.2-1.2-0.7-2.3-1.3-3.2c0,0,0,0,0,0c-1.3,1.8-1.8,4.2-1.2,6.3
				C212.2,30,213.3,30.7,213.9,29.1z"/>
			<path class="st0" d="M211.2,36.6c0.4,0.4,0.9,0.7,1.5,0.9c0.3,0.1,0.5,0.1,0.8,0c0.4-0.2,0.4-0.7,0.3-1.2c-0.2-1.1-0.8-2.2-1.6-3
				c-0.8-0.8-2.1-1.9-3.3-2c-0.3,0.8,0.3,2.2,0.6,2.9C210,35.2,210.5,36,211.2,36.6z"/>
			<path class="st0" d="M213.7,34.4c0.1,1.4,1,2.3,2,0.8c0.7-1,1-2.1,1-3.3c0-1.2-0.2-2.3-0.6-3.4c0,0,0,0,0,0
				C214.5,29.9,213.5,32.2,213.7,34.4z"/>
			<path class="st0" d="M213.5,43.4c0.4-0.1,0.6-0.6,0.6-1.1c0-1.2-0.4-2.3-1-3.3c-0.6-1-1.6-2.3-2.8-2.6c-0.4,0.7-0.2,2.2,0,2.9
				c0.2,0.9,0.6,1.8,1.2,2.6c0.3,0.5,0.8,0.9,1.3,1.2C213,43.4,213.3,43.5,213.5,43.4z"/>
			<path class="st0" d="M214.4,40.3c-0.2,1.4,0.5,2.4,1.8,1.2c0.9-0.8,1.4-1.9,1.7-3c0.3-1.1,0.3-2.3,0.1-3.5c0,0,0,0,0,0
				C216,36.1,214.7,38.1,214.4,40.3z"/>
			<path class="st0" d="M212.3,49.1c0.4,0,0.7-0.5,0.8-0.9c0.3-1.1,0.1-2.3-0.3-3.4c-0.4-1.1-1.1-2.6-2.2-3.2
				c-0.6,0.6-0.6,2.1-0.6,2.9c0,1,0.2,1.9,0.6,2.8c0.2,0.5,0.6,1,1,1.5C211.8,49,212.1,49.1,212.3,49.1z"/>
			<path class="st0" d="M218.4,41.9c-2.1,0.6-3.9,2.3-4.6,4.4c-0.5,1.3,0,2.5,1.5,1.6c1-0.6,1.8-1.5,2.3-2.6
				C218.1,44.2,218.4,43.1,218.4,41.9C218.4,41.9,218.4,41.9,218.4,41.9z"/>
			<path class="st0" d="M210,54.5c0.4,0.1,0.8-0.4,1-0.7c0.5-1,0.6-2.2,0.4-3.4c-0.2-1.2-0.6-2.8-1.5-3.5c-0.7,0.5-1,1.9-1.2,2.7
				c-0.2,0.9-0.2,1.9,0,2.9c0.1,0.6,0.3,1.1,0.7,1.6C209.5,54.2,209.7,54.4,210,54.5z"/>
			<path class="st0" d="M212,52c-0.7,1.2-0.5,2.4,1.1,1.9c1.1-0.4,2.1-1.1,2.8-2.1c0.7-0.9,1.2-2,1.5-3.1c0,0,0,0,0,0
				C215.2,48.8,213.1,50.1,212,52z"/>
			<path class="st0" d="M206.3,54.1c-0.4,0.9-0.6,1.8-0.6,2.8c0,0.6,0.1,1.2,0.3,1.7c0.1,0.2,0.3,0.5,0.5,0.6
				c0.4,0.2,0.8-0.2,1.1-0.5c0.7-0.9,1.1-2.1,1.1-3.2c0.1-1.2,0-2.8-0.7-3.8C207.2,52,206.6,53.4,206.3,54.1z"/>
			<path class="st0" d="M209,57.2c-0.9,1-1,2.3,0.7,2.1c1.2-0.1,2.3-0.7,3.2-1.4c0.9-0.8,1.6-1.7,2.2-2.8c0,0,0,0,0,0
				C212.8,54.8,210.5,55.6,209,57.2z"/>
			<path class="st0" d="M203,58.1c-0.5,0.8-0.9,1.7-1.1,2.6c-0.1,0.6-0.2,1.2-0.1,1.7c0,0.3,0.1,0.5,0.4,0.7c0.4,0.2,0.8,0,1.2-0.3
				c0.9-0.7,1.5-1.8,1.8-2.9c0.3-1.1,0.6-2.8,0.1-3.9C204.4,56.3,203.5,57.4,203,58.1z"/>
			<path class="st0" d="M205,61.7c-1.1,0.8-1.5,2,0.3,2.2c1.2,0.1,2.4-0.2,3.4-0.8c1-0.6,1.9-1.4,2.7-2.3c0,0,0,0,0,0
				C209.3,60.1,206.8,60.5,205,61.7z"/>
			<path class="st0" d="M198.3,66.1c1-0.5,1.8-1.5,2.3-2.5c0.5-1,1.2-2.6,0.9-3.8c-0.8,0-2,1-2.5,1.5c-0.7,0.7-1.3,1.5-1.7,2.3
				c-0.2,0.5-0.4,1.1-0.4,1.7c0,0.3,0,0.6,0.2,0.8C197.4,66.4,197.9,66.3,198.3,66.1z"/>
			<path class="st0" d="M200.2,65.3c-1.3,0.5-1.9,1.7-0.2,2.2c1.1,0.3,2.3,0.3,3.5,0c1.1-0.3,2.2-0.9,3.1-1.6c0,0,0,0,0,0
				C204.7,64.6,202.2,64.4,200.2,65.3z"/>
			<path class="st0" d="M194.4,63.6c-0.8,0.5-1.5,1.2-2.1,1.9c-0.3,0.5-0.6,1-0.8,1.6c-0.1,0.3-0.1,0.6,0.1,0.8
				c0.2,0.4,0.8,0.3,1.2,0.2c1.1-0.3,2.1-1,2.8-1.9c0.7-0.9,1.7-2.3,1.6-3.5C196.4,62.5,195,63.2,194.4,63.6z"/>
			<path class="st0" d="M194.7,67.8c-1.4,0.2-2.2,1.2-0.6,2.1c1,0.6,2.2,0.8,3.4,0.7c1.2-0.1,2.3-0.4,3.4-1c0,0,0,0,0,0
				C199.3,68.1,196.9,67.4,194.7,67.8z"/>
			<path class="st0" d="M192.3,64.6c-0.7-0.4-2.2,0.1-2.9,0.3c-0.9,0.3-1.8,0.8-2.5,1.5c-0.4,0.4-0.8,0.8-1.1,1.4
				c-0.1,0.2-0.2,0.5-0.1,0.8c0.2,0.4,0.7,0.5,1.1,0.5c1.1-0.1,2.2-0.6,3.1-1.3C190.9,66.9,192.1,65.8,192.3,64.6z"/>
			<path class="st0" d="M188.9,69.1c-1.4,0-2.4,0.8-1,1.9c0.9,0.8,2,1.2,3.2,1.4c1.2,0.2,2.4,0,3.5-0.2c0,0,0,0,0,0
				C193.2,70.3,191.1,69.1,188.9,69.1z"/>
		</g>
		<path class="st2" d="M184.7,3.3c0.2,0,0.4,0,0.6,0c9.3,0,18.6,3.5,25.7,10.5c0,0,0,0,0.1,0.1c0,0,0,0,0.1,0.1
			c7,7.1,10.5,16.4,10.5,25.7c0,0.2,0,0.4,0,0.6c0,0.2,0,0.4,0,0.6c0,9.3-3.5,18.5-10.5,25.7c0,0,0,0-0.1,0.1c0,0,0,0-0.1,0.1
			c-7.1,7-16.4,10.5-25.7,10.5c-0.2,0-0.4,0-0.6,0c-0.2,0-0.4,0-0.6,0c-9.3,0-18.5-3.5-25.7-10.5c0,0,0,0-0.1-0.1c0,0,0,0-0.1-0.1
			c-7-7.1-10.5-16.4-10.5-25.7c0-0.2,0-0.4,0-0.6c0-0.2,0-0.4,0-0.6c0-9.3,3.5-18.5,10.5-25.7c0,0,0,0,0.1-0.1c0,0,0,0,0.1-0.1
			c7.1-7,16.4-10.5,25.7-10.5C184.3,3.3,184.5,3.3,184.7,3.3z"/>
		<path class="st1" d="M184.7,4.8c0.2,0,0.4,0,0.6,0c8.9,0,17.8,3.4,24.6,10.1c0,0,0,0,0.1,0.1c0,0,0,0,0.1,0.1
			c6.7,6.8,10.1,15.7,10.1,24.6c0,0.2,0,0.4,0,0.6c0,0.2,0,0.4,0,0.6c0,8.9-3.4,17.8-10.1,24.6c0,0,0,0-0.1,0.1c0,0,0,0-0.1,0.1
			c-6.8,6.7-15.7,10.1-24.6,10.1c-0.2,0-0.4,0-0.6,0c-0.2,0-0.4,0-0.6,0c-8.9,0-17.8-3.4-24.6-10.1c0,0,0,0-0.1-0.1c0,0,0,0-0.1-0.1
			c-6.7-6.8-10.1-15.7-10.1-24.6c0-0.2,0-0.4,0-0.6c0-0.2,0-0.4,0-0.6c0-8.9,3.4-17.8,10.1-24.6c0,0,0,0,0.1-0.1c0,0,0,0,0.1-0.1
			c6.8-6.7,15.7-10.1,24.6-10.1C184.3,4.8,184.5,4.8,184.7,4.8z"/>
		<g>
			<g>
				<g>
					<path class="st0" d="M210.9,14.9c0.4-0.4,1-0.4,1.4,0c0.4,0.4,0.3,1-0.1,1.4c-0.4,0.4-1,0.4-1.4,0
						C210.4,15.8,210.5,15.2,210.9,14.9z"/>
				</g>
				<g>
					<path class="st0" d="M213,17.2c0.5-0.4,1-0.3,1.4,0.2c0.3,0.4,0.2,1-0.2,1.3c-0.5,0.3-1,0.3-1.4-0.2
						C212.4,18.1,212.5,17.5,213,17.2z"/>
				</g>
				<g>
					<path class="st0" d="M214.8,19.7c0.5-0.3,1.1-0.2,1.3,0.3c0.3,0.5,0.2,1-0.3,1.3c-0.5,0.3-1,0.2-1.3-0.3
						C214.2,20.6,214.3,20,214.8,19.7z"/>
				</g>
				<g>
					<path class="st0" d="M216.4,22.4c0.5-0.3,1.1-0.1,1.3,0.4c0.3,0.5,0.1,1-0.5,1.3c-0.5,0.3-1.1,0.1-1.3-0.4
						C215.7,23.2,215.9,22.6,216.4,22.4z"/>
				</g>
				<g>
					<path class="st0" d="M217.8,25.2c0.5-0.2,1.1,0,1.3,0.5c0.2,0.5,0,1-0.6,1.2c-0.5,0.2-1.1,0-1.3-0.5
						C217,25.9,217.3,25.4,217.8,25.2z"/>
				</g>
				<g>
					<path class="st0" d="M218.9,28.1c0.6-0.2,1.1,0.1,1.2,0.6c0.2,0.5-0.1,1-0.7,1.2c-0.5,0.2-1.1-0.1-1.2-0.6
						C218.1,28.7,218.4,28.2,218.9,28.1z"/>
				</g>
				<g>
					<path class="st0" d="M219.8,31.1c0.6-0.1,1.1,0.2,1.2,0.7c0.1,0.5-0.2,1-0.8,1.1c-0.6,0.1-1.1-0.1-1.2-0.7
						C218.9,31.6,219.2,31.2,219.8,31.1z"/>
				</g>
				<g>
					<path class="st0" d="M220.4,34.1c0.6-0.1,1,0.3,1.1,0.8c0.1,0.5-0.3,1-0.9,1.1c-0.6,0.1-1-0.2-1.1-0.8
						C219.4,34.6,219.8,34.2,220.4,34.1z"/>
				</g>
				<g>
					<path class="st0" d="M220.7,37.2c0.6,0,1,0.4,1,0.9c0,0.6-0.4,0.9-1,1c-0.6,0-1-0.3-1-0.9C219.7,37.6,220.1,37.2,220.7,37.2z"
						/>
				</g>
			</g>
			<g>
				<g>
					<path class="st0" d="M159.3,14c-0.4-0.4-0.4-1,0-1.4c0.4-0.4,1-0.3,1.4,0.1c0.4,0.4,0.4,1,0,1.4
						C160.3,14.4,159.7,14.4,159.3,14z"/>
				</g>
				<g>
					<path class="st0" d="M161.6,11.9c-0.4-0.5-0.3-1,0.2-1.4s1-0.2,1.3,0.2c0.3,0.5,0.3,1-0.2,1.4C162.6,12.5,162,12.4,161.6,11.9z
						"/>
				</g>
				<g>
					<path class="st0" d="M164.2,10.1c-0.3-0.5-0.2-1.1,0.3-1.3c0.5-0.3,1-0.2,1.3,0.3c0.3,0.5,0.2,1-0.3,1.3
						C165,10.7,164.5,10.6,164.2,10.1z"/>
				</g>
				<g>
					<path class="st0" d="M166.8,8.5c-0.3-0.5-0.1-1.1,0.4-1.3c0.5-0.3,1-0.1,1.3,0.5c0.3,0.5,0.1,1.1-0.4,1.3
						C167.6,9.2,167.1,9,166.8,8.5z"/>
				</g>
				<g>
					<path class="st0" d="M169.6,7.1c-0.2-0.5,0-1.1,0.5-1.3c0.5-0.2,1,0,1.2,0.6c0.2,0.5,0,1.1-0.5,1.3
						C170.3,7.9,169.8,7.6,169.6,7.1z"/>
				</g>
				<g>
					<path class="st0" d="M172.5,6c-0.2-0.6,0.1-1.1,0.6-1.2c0.5-0.2,1,0.1,1.2,0.7c0.2,0.5-0.1,1.1-0.6,1.2
						C173.2,6.8,172.7,6.5,172.5,6z"/>
				</g>
				<g>
					<path class="st0" d="M175.5,5.1c-0.1-0.6,0.2-1.1,0.7-1.2c0.5-0.1,1,0.2,1.1,0.8c0.1,0.6-0.1,1.1-0.7,1.2
						C176.1,6,175.6,5.7,175.5,5.1z"/>
				</g>
				<g>
					<path class="st0" d="M178.6,4.5c-0.1-0.6,0.3-1,0.8-1.1c0.5-0.1,1,0.3,1.1,0.9c0.1,0.6-0.2,1-0.8,1.1
						C179.1,5.5,178.6,5.1,178.6,4.5z"/>
				</g>
				<g>
					<path class="st0" d="M181.9,4.2c0-0.6,0.4-1,0.9-1c0.6,0,0.9,0.4,1,1c0,0.6-0.3,1-0.9,1C182.3,5.2,181.9,4.8,181.9,4.2z"/>
				</g>
			</g>
			<g>
				<g>
					<path class="st0" d="M158.4,65.6c-0.4,0.4-1,0.4-1.4,0c-0.4-0.4-0.3-1,0.1-1.4c0.4-0.4,1-0.4,1.4,0
						C158.9,64.6,158.8,65.2,158.4,65.6z"/>
				</g>
				<g>
					<path class="st0" d="M156.4,63.2c-0.5,0.4-1,0.3-1.4-0.2c-0.3-0.4-0.2-1,0.2-1.3c0.5-0.3,1-0.3,1.4,0.2
						C156.9,62.3,156.8,62.9,156.4,63.2z"/>
				</g>
				<g>
					<path class="st0" d="M154.5,60.7c-0.5,0.3-1.1,0.2-1.3-0.3c-0.3-0.5-0.2-1,0.3-1.3c0.5-0.3,1-0.2,1.3,0.3
						C155.2,59.9,155,60.4,154.5,60.7z"/>
				</g>
				<g>
					<path class="st0" d="M152.9,58.1c-0.5,0.3-1.1,0.1-1.3-0.4c-0.3-0.5-0.1-1,0.5-1.3c0.5-0.3,1.1-0.1,1.3,0.4
						C153.6,57.3,153.4,57.8,152.9,58.1z"/>
				</g>
				<g>
					<path class="st0" d="M151.6,55.3c-0.5,0.2-1.1,0-1.3-0.5c-0.2-0.5,0-1,0.6-1.2c0.5-0.2,1.1,0,1.3,0.5
						C152.3,54.5,152.1,55,151.6,55.3z"/>
				</g>
				<g>
					<path class="st0" d="M150.4,52.4c-0.6,0.2-1.1-0.1-1.2-0.6c-0.2-0.5,0.1-1,0.7-1.2c0.5-0.2,1.1,0.1,1.2,0.6
						C151.3,51.7,151,52.2,150.4,52.4z"/>
				</g>
				<g>
					<path class="st0" d="M149.6,49.4c-0.6,0.1-1.1-0.2-1.2-0.7c-0.1-0.5,0.2-1,0.8-1.1c0.6-0.1,1.1,0.1,1.2,0.7
						C150.5,48.8,150.1,49.2,149.6,49.4z"/>
				</g>
				<g>
					<path class="st0" d="M149,46.3c-0.6,0.1-1-0.3-1.1-0.8c-0.1-0.5,0.3-1,0.9-1.1c0.6-0.1,1,0.2,1.1,0.8
						C149.9,45.8,149.5,46.2,149,46.3z"/>
				</g>
				<g>
					<path class="st0" d="M148.6,43.2c-0.6,0-1-0.4-1-0.9c0-0.6,0.4-0.9,1-1c0.6,0,1,0.3,1,0.9C149.6,42.8,149.2,43.2,148.6,43.2z"
						/>
				</g>
			</g>
			<g>
				<g>
					<path class="st0" d="M210,66.5c0.4,0.4,0.4,1,0,1.4c-0.4,0.4-1,0.3-1.4-0.1c-0.4-0.4-0.4-1,0-1.4C209.1,66,209.6,66.1,210,66.5
						z"/>
				</g>
				<g>
					<path class="st0" d="M207.7,68.5c0.4,0.5,0.3,1-0.2,1.4c-0.4,0.3-1,0.2-1.3-0.2c-0.3-0.5-0.3-1,0.2-1.4
						C206.8,68,207.3,68.1,207.7,68.5z"/>
				</g>
				<g>
					<path class="st0" d="M205.2,70.3c0.3,0.5,0.2,1.1-0.3,1.3c-0.5,0.3-1,0.2-1.3-0.3c-0.3-0.5-0.2-1,0.3-1.3
						C204.3,69.7,204.9,69.9,205.2,70.3z"/>
				</g>
				<g>
					<path class="st0" d="M202.5,72c0.3,0.5,0.1,1.1-0.4,1.3c-0.5,0.3-1,0.1-1.3-0.5c-0.3-0.5-0.1-1.1,0.4-1.3
						C201.7,71.2,202.2,71.5,202.5,72z"/>
				</g>
				<g>
					<path class="st0" d="M199.7,73.3c0.2,0.5,0,1.1-0.5,1.3c-0.5,0.2-1,0-1.2-0.6c-0.2-0.5,0-1.1,0.5-1.3
						C199,72.5,199.5,72.8,199.7,73.3z"/>
				</g>
				<g>
					<path class="st0" d="M196.8,74.4c0.2,0.6-0.1,1.1-0.6,1.2c-0.5,0.2-1-0.1-1.2-0.7c-0.2-0.5,0.1-1.1,0.6-1.2
						C196.1,73.6,196.6,73.9,196.8,74.4z"/>
				</g>
				<g>
					<path class="st0" d="M193.8,75.3c0.1,0.6-0.2,1.1-0.7,1.2c-0.5,0.1-1-0.2-1.1-0.8c-0.1-0.6,0.1-1.1,0.7-1.2
						C193.2,74.4,193.7,74.7,193.8,75.3z"/>
				</g>
				<g>
					<path class="st0" d="M190.8,75.9c0.1,0.6-0.3,1-0.8,1.1c-0.5,0.1-1-0.3-1.1-0.9c-0.1-0.6,0.2-1,0.8-1.1
						C190.3,75,190.7,75.3,190.8,75.9z"/>
				</g>
				<g>
					<path class="st0" d="M187.4,76.2c0,0.6-0.4,1-0.9,1c-0.6,0-0.9-0.4-1-1c0-0.6,0.3-1,0.9-1C187,75.3,187.4,75.7,187.4,76.2z"/>
				</g>
			</g>
			<g>
				<g>
					<path class="st0" d="M208.7,14.1c-0.4-0.4-0.4-1,0-1.4c0.4-0.4,1-0.5,1.4-0.1c0.4,0.4,0.4,0.9,0,1.4
						C209.6,14.4,209.1,14.4,208.7,14.1z"/>
				</g>
				<g>
					<path class="st0" d="M206.3,12.1c-0.5-0.4-0.5-0.9-0.2-1.4c0.4-0.5,0.9-0.6,1.3-0.2c0.4,0.3,0.5,0.9,0.2,1.4
						C207.3,12.4,206.8,12.5,206.3,12.1z"/>
				</g>
				<g>
					<path class="st0" d="M203.9,10.4c-0.5-0.3-0.6-0.9-0.3-1.3c0.3-0.5,0.9-0.6,1.3-0.3c0.5,0.3,0.6,0.9,0.3,1.3
						C204.9,10.6,204.3,10.7,203.9,10.4z"/>
				</g>
				<g>
					<path class="st0" d="M201.2,8.9c-0.5-0.3-0.6-0.8-0.4-1.3c0.3-0.5,0.8-0.7,1.3-0.5c0.5,0.3,0.7,0.8,0.4,1.3
						C202.2,9,201.7,9.2,201.2,8.9z"/>
				</g>
				<g>
					<path class="st0" d="M198.5,7.7c-0.5-0.2-0.7-0.8-0.5-1.3c0.2-0.5,0.7-0.8,1.2-0.6c0.5,0.2,0.7,0.7,0.5,1.3
						C199.5,7.6,199,7.9,198.5,7.7z"/>
				</g>
				<g>
					<path class="st0" d="M195.6,6.7c-0.6-0.2-0.8-0.7-0.6-1.2c0.2-0.6,0.7-0.8,1.2-0.7c0.5,0.2,0.8,0.7,0.6,1.2
						C196.6,6.5,196.1,6.8,195.6,6.7z"/>
				</g>
				<g>
					<path class="st0" d="M192.7,5.9c-0.6-0.1-0.8-0.6-0.7-1.2c0.1-0.6,0.6-0.9,1.1-0.8c0.5,0.1,0.8,0.6,0.7,1.2
						C193.7,5.7,193.2,6,192.7,5.9z"/>
				</g>
				<g>
					<path class="st0" d="M189.7,5.4c-0.6-0.1-0.9-0.5-0.8-1.1c0.1-0.6,0.5-0.9,1.1-0.9c0.5,0.1,0.9,0.5,0.8,1.1
						C190.7,5.1,190.3,5.5,189.7,5.4z"/>
				</g>
				<g>
					<path class="st0" d="M186.4,5.1c-0.6,0-0.9-0.5-0.9-1c0-0.6,0.4-1,1-1c0.6,0,0.9,0.4,0.9,1C187.4,4.8,187,5.2,186.4,5.1z"/>
				</g>
			</g>
			<g>
				<g>
					<path class="st0" d="M158.5,16.2c-0.4,0.4-1,0.4-1.4,0c-0.4-0.4-0.5-1-0.1-1.4c0.4-0.4,0.9-0.4,1.4,0
						C158.8,15.2,158.9,15.8,158.5,16.2z"/>
				</g>
				<g>
					<path class="st0" d="M156.6,18.5c-0.4,0.5-0.9,0.5-1.4,0.2c-0.5-0.4-0.6-0.9-0.2-1.3c0.3-0.4,0.9-0.5,1.4-0.2
						C156.8,17.5,156.9,18.1,156.6,18.5z"/>
				</g>
				<g>
					<path class="st0" d="M154.9,21c-0.3,0.5-0.9,0.6-1.3,0.3c-0.5-0.3-0.6-0.9-0.3-1.3c0.3-0.5,0.9-0.6,1.3-0.3
						C155,20,155.2,20.6,154.9,21z"/>
				</g>
				<g>
					<path class="st0" d="M153.4,23.7c-0.3,0.5-0.8,0.6-1.3,0.4c-0.5-0.3-0.7-0.8-0.5-1.3c0.3-0.5,0.8-0.7,1.3-0.4
						C153.4,22.6,153.6,23.2,153.4,23.7z"/>
				</g>
				<g>
					<path class="st0" d="M152.1,26.4c-0.2,0.5-0.8,0.7-1.3,0.5c-0.5-0.2-0.8-0.7-0.6-1.2c0.2-0.5,0.7-0.7,1.3-0.5
						C152.1,25.4,152.3,25.9,152.1,26.4z"/>
				</g>
				<g>
					<path class="st0" d="M151.1,29.3c-0.2,0.6-0.7,0.8-1.2,0.6c-0.6-0.2-0.8-0.7-0.7-1.2c0.2-0.5,0.7-0.8,1.2-0.6
						C151,28.2,151.3,28.7,151.1,29.3z"/>
				</g>
				<g>
					<path class="st0" d="M150.3,32.2c-0.1,0.6-0.6,0.8-1.2,0.7c-0.6-0.1-0.9-0.6-0.8-1.1c0.1-0.5,0.6-0.8,1.2-0.7
						C150.1,31.2,150.5,31.6,150.3,32.2z"/>
				</g>
				<g>
					<path class="st0" d="M149.8,35.2c-0.1,0.6-0.5,0.9-1.1,0.8c-0.6-0.1-0.9-0.5-0.9-1.1c0.1-0.5,0.5-0.9,1.1-0.8
						C149.5,34.2,149.9,34.6,149.8,35.2z"/>
				</g>
				<g>
					<path class="st0" d="M149.6,38.2c0,0.6-0.5,0.9-1,0.9c-0.6,0-1-0.4-1-1c0-0.6,0.4-0.9,1-0.9C149.2,37.2,149.6,37.6,149.6,38.2z
						"/>
				</g>
			</g>
			<g>
				<g>
					<path class="st0" d="M160.7,66.4c0.4,0.4,0.4,1,0,1.4c-0.4,0.4-1,0.5-1.4,0.1c-0.4-0.4-0.4-0.9,0-1.4
						C159.7,66.1,160.3,66,160.7,66.4z"/>
				</g>
				<g>
					<path class="st0" d="M163,68.3c0.5,0.4,0.5,0.9,0.2,1.4c-0.4,0.5-0.9,0.6-1.3,0.2c-0.4-0.3-0.5-0.9-0.2-1.4
						C162,68.1,162.5,68,163,68.3z"/>
				</g>
				<g>
					<path class="st0" d="M165.5,70c0.5,0.3,0.6,0.9,0.3,1.3c-0.3,0.5-0.9,0.6-1.3,0.3c-0.5-0.3-0.6-0.9-0.3-1.3
						C164.5,69.9,165,69.7,165.5,70z"/>
				</g>
				<g>
					<path class="st0" d="M168.1,71.5c0.5,0.3,0.6,0.8,0.4,1.3c-0.3,0.5-0.8,0.7-1.3,0.5c-0.5-0.3-0.7-0.8-0.4-1.3
						C167.1,71.4,167.6,71.2,168.1,71.5z"/>
				</g>
				<g>
					<path class="st0" d="M170.9,72.8c0.5,0.2,0.7,0.8,0.5,1.3c-0.2,0.5-0.7,0.8-1.2,0.6c-0.5-0.2-0.7-0.7-0.5-1.3
						C169.8,72.8,170.3,72.5,170.9,72.8z"/>
				</g>
				<g>
					<path class="st0" d="M173.7,73.8c0.6,0.2,0.8,0.7,0.6,1.2c-0.2,0.6-0.7,0.8-1.2,0.7c-0.5-0.2-0.8-0.7-0.6-1.2
						C172.7,73.9,173.2,73.6,173.7,73.8z"/>
				</g>
				<g>
					<path class="st0" d="M176.6,74.5c0.6,0.1,0.8,0.6,0.7,1.2c-0.1,0.6-0.6,0.9-1.1,0.8c-0.5-0.1-0.8-0.6-0.7-1.2
						C175.6,74.7,176.1,74.4,176.6,74.5z"/>
				</g>
				<g>
					<path class="st0" d="M179.6,75c0.6,0.1,0.9,0.5,0.8,1.1c-0.1,0.6-0.5,0.9-1.1,0.9c-0.5-0.1-0.9-0.5-0.8-1.1
						C178.6,75.3,179.1,75,179.6,75z"/>
				</g>
				<g>
					<path class="st0" d="M182.9,75.3c0.6,0,0.9,0.5,0.9,1c0,0.6-0.4,1-1,1c-0.6,0-0.9-0.4-0.9-1C181.9,75.7,182.3,75.3,182.9,75.3z
						"/>
				</g>
			</g>
			<g>
				<g>
					<path class="st0" d="M210.8,64.2c0.4-0.4,1-0.4,1.4,0c0.4,0.4,0.5,1,0.1,1.4c-0.4,0.4-0.9,0.4-1.4,0
						C210.5,65.2,210.4,64.6,210.8,64.2z"/>
				</g>
				<g>
					<path class="st0" d="M212.7,61.9c0.4-0.5,0.9-0.5,1.4-0.2c0.5,0.4,0.6,0.9,0.2,1.3c-0.3,0.4-0.9,0.5-1.4,0.2
						C212.5,62.9,212.4,62.3,212.7,61.9z"/>
				</g>
				<g>
					<path class="st0" d="M214.5,59.4c0.3-0.5,0.9-0.6,1.3-0.3c0.5,0.3,0.6,0.9,0.3,1.3c-0.3,0.5-0.9,0.6-1.3,0.3
						C214.3,60.4,214.2,59.9,214.5,59.4z"/>
				</g>
				<g>
					<path class="st0" d="M216,56.8c0.3-0.5,0.8-0.6,1.3-0.4c0.5,0.3,0.7,0.8,0.5,1.3c-0.3,0.5-0.8,0.7-1.3,0.4
						C215.9,57.8,215.7,57.3,216,56.8z"/>
				</g>
				<g>
					<path class="st0" d="M217.2,54c0.2-0.5,0.8-0.7,1.3-0.5c0.5,0.2,0.8,0.7,0.6,1.2c-0.2,0.5-0.7,0.7-1.3,0.5
						C217.3,55,217,54.5,217.2,54z"/>
				</g>
				<g>
					<path class="st0" d="M218.2,51.2c0.2-0.6,0.7-0.8,1.2-0.6c0.6,0.2,0.8,0.7,0.7,1.2c-0.2,0.5-0.7,0.8-1.2,0.6
						C218.4,52.2,218.1,51.7,218.2,51.2z"/>
				</g>
				<g>
					<path class="st0" d="M219,48.2c0.1-0.6,0.6-0.8,1.2-0.7c0.6,0.1,0.9,0.6,0.8,1.1c-0.1,0.5-0.6,0.8-1.2,0.7
						C219.2,49.2,218.9,48.8,219,48.2z"/>
				</g>
				<g>
					<path class="st0" d="M219.5,45.3c0.1-0.6,0.5-0.9,1.1-0.8c0.6,0.1,0.9,0.5,0.9,1.1c-0.1,0.5-0.5,0.9-1.1,0.8
						C219.8,46.2,219.4,45.8,219.5,45.3z"/>
				</g>
				<g>
					<path class="st0" d="M219.7,42.2c0-0.6,0.5-0.9,1-0.9c0.6,0,1,0.4,1,1c0,0.6-0.4,0.9-1,0.9C220.1,43.2,219.7,42.8,219.7,42.2z"
						/>
				</g>
			</g>
		</g>
		<path class="st0" d="M184.8,17.6c5.8,0,11.6,2.2,16,6.6c4.4,4.4,6.6,10.2,6.6,16c0,5.8-2.2,11.6-6.6,16c-4.4,4.4-10.2,6.6-16,6.6
			c-5.8,0-11.6-2.2-16-6.6c-4.4-4.4-6.6-10.2-6.6-16c0-5.8,2.2-11.6,6.6-16C173.2,19.8,179,17.6,184.8,17.6z M194.2,31.7
			c-0.3,0.1-1.2-0.7-1.9-1c-0.7-0.3-1.2-0.3-1.4-0.5c-0.2-0.1-0.4-0.5-0.6-0.6c-0.3-0.1-0.9-0.2-1.5-0.4c-0.3-0.1-0.6-0.2-0.6-0.3
			c0-0.1,0.2-0.8,0.2-0.8s0.5,0.5,0.9,0.6c0.3,0.1,0.3,0.2,0.6,0.2c0.2,0,0.2,0,0.2,0c0.1,0,0.3,0,0.3-0.3c0-0.1-0.1-0.2-0.1-0.2
			c0-0.1,0-0.3,0.1-0.3c0.1,0,0-0.1,0.1-0.3c0.1-0.1,0-0.2,0-0.2c0,0,0.6,0.1,0.7,0c0.1-0.1-0.3-1.4-0.3-1.4c0-0.1-0.1-0.2-0.1-0.3
			c0-0.1,0.1-0.1,0.2-0.1c0.2,0,0.5-0.1,0.6-0.4c0.1-0.4,0-0.3,0.1-0.5c0.1-0.1-0.5-0.5-0.5-0.6c-0.4-0.6-0.9-0.5-0.9-0.5
			c-0.3-0.3,0.1-0.4-1-0.5c-0.7-0.4-1.1-0.3-1.3-0.1c-0.5-0.1-0.6-0.1-1,0.3c-0.6,0.1-0.8,0.7-1,1c-0.4,0.4-0.6,1.3-0.3,1.7
			c-0.2,0.8,0.6,1.1,0.7,1c0,0-0.6,0.8-0.7,0.9c-0.3,0.1-1.9-1.1-3.2-0.2c-0.4,0.2-1,0.7-1.2,0.8c-2.7,1.2-3.1,2.4-4,2.9
			c-1.2,0.8-0.6,0.6-1,1.5c-0.2,0.4-0.7,1.4-1.1,2.6c-0.4,1.2-0.4,1.3-0.7,1.9c-0.3,0.6-0.3,0.8-0.5,1.3c-0.2,0.5-0.4,0.8-0.5,1
			c-0.1,0.2-0.3,1-0.2,1.2c0.1,0.2,0.4,0.4,0.5,0.3c0.2-0.2,0.4-0.8,0.5-0.9c0.2-0.3,0.2-0.3,0.6-0.6c0.3-0.3,0.4-0.5,0.6-0.4
			c0.2,0.1,0.4,1,0.6,1.1c0.2,0,0.1-0.2,0.1-0.4c-0.1-0.6-0.1-0.7-0.1-1.2c-0.1-0.5-0.3-0.9-0.2-1.3c0.1-0.4,2.2-3.1,2.5-3.6
			c0.3-0.5,0.2-1.1,0.3-1.2c0.2-0.3,3.1-1.6,3.5-1.7c0,0.7,0.1,0.7,0.1,1c0,0-0.2,1-0.2,1.8c0,0.8-0.4,1.8-0.4,1.8s-1.8,0.8-2.3,2.6
			c-0.6,1.9,0.3,2.6,0.3,2.6s-0.9,1-1.3,2.8c-0.5,1.8-0.2,3-0.4,3.1c-0.2,0.1-2-0.6-3.5,0.3c-1.5,1-1.5,1.2-1.8,1.7
			c-0.3,0.4-1.3,1.4-1.8,1.8c-0.5,0.4-0.6,0.6-1,0.6c-0.4,0-1.4,0-1.6,0.6c-0.2,0.5-0.1,1.3,0.4,1.8c0.5,0.5,0.7,0.7,0.8,1.3
			c0.1,0.5,0.6,1.9,1.3,1.8c0.7-0.1,0.2-0.3,0.1-0.4c-0.1-0.1-0.6-1.1-0.6-1.5c0-0.4,0.2-1.8,0.4-2.2c0.2-0.4,0.5-0.7,0.7-0.8
			c0.2-0.1,2.7-1,4.1-1.6c1.3-0.5,2.5-1.1,2.9-1.2c0.4-0.1,0.6-0.1,0.7-0.1c0.2,0,0.6-0.1,0.8-0.2s0.6-1.1,0.8-1.3
			c0.2-0.2,1.7-2,2.4-3.2c0.8-1.2,1.1-2.1,1.1-2.1s1.4,0.5,3.3,0.1c1.8-0.4,3.2-1.2,3.5-1c0.4,0.2-0.4,2.7,1.1,3.8
			c1.5,1.1,2.5,1.2,3.4,2c0.9,0.8,1.1,1,1.2,1.5c0.1,0.5,0,1.7,0.5,1.8c0.6,0.1,1.4-0.2,2.1-0.2c0.8,0,1.4,0.4,2.2,0.4
			c0.8,0,1.4-0.1,1.5-0.3c0.1-0.2-0.4-0.3-0.6-0.2c-0.1,0-1.4-0.2-2.6-0.8c-1.2-0.6-2.3-1.7-2.5-2.1c-0.2-0.4-3.2-4.8-3.6-5.7
			c-0.4-1-0.4-1.1-0.5-1.2c0-0.1-0.1-0.9-0.5-1.3c-0.4-0.4-1.3-0.4-1.5-0.5c-0.2-0.1-1.3-0.4-2.6-0.6c-1.3-0.2-2.9,0-2.9,0
			c0.6-0.7,1.6-2,1.7-2.8c0,0,0.8-0.5,1.2-1.1c0.4-0.6,0.8-1,0.8-1s0.8,0.5,2.1,0.5c1.3,0,1.5,0.1,1.6,0.2c0.1,0,0.5,0.3,0.8,0.3
			c0.4,0,3.4-2.3,3.9-2.9 M197.9,30.7c0.8-1,0.9-1.1,1.3-1.6c0.4-0.6,0.5-0.7,0.9-1c0.4-0.3,0.6-0.7,0.8-0.8c0.2-0.2,0.7-0.8,0.6-1
			c0-0.2-0.2-0.5-0.3-0.4c-0.2,0.1-0.6,0.6-0.7,0.7c-0.3,0.3-0.3,0.3-0.7,0.4c-0.4,0.1-0.5,0.3-0.7,0.2c-0.1-0.1,0.1-1.1-0.1-1.2
			c-0.1-0.1-0.2,0.1-0.2,0.4c-0.1,0.6-0.2,0.7-0.4,1.2c-0.1,0.5-0.1,1-0.3,1.3c-0.2,0.3-3.5,2.6-4,3"/>
		<path class="st3" d="M197.9,30.5"/>
	</g>
</g>
</svg>
