<svg width="42" height="59" viewBox="0 0 42 59" fill="none" xmlns="http://www.w3.org/2000/svg">
<path d="M42 21.8532C42 33.9588 27.1602 51.8197 22.4301 57.2052C21.6644 58.077 20.3356 58.077 19.5699 57.2052C14.8398 51.8197 0 33.9588 0 21.8532C0 12.7156 42 12.7156 42 21.8532Z" fill="#8F2829"/>
<circle cx="21" cy="21" r="21" fill="#8F2829"/>
<path d="M20.9984 9.24353C24.0306 9.24353 27.05 10.3919 29.3726 12.6887C31.6693 15.0113 32.8177 18.0306 32.8177 21.0629C32.8177 24.0951 31.6693 27.1145 29.3726 29.4371C27.05 31.7339 24.0306 32.8822 20.9984 32.8822C17.9661 32.8822 14.9468 31.7339 12.6242 29.4371C10.3274 27.1145 9.17902 24.0822 9.17902 21.0629C9.17902 18.0306 10.3274 15.0113 12.6242 12.6887C14.9468 10.3919 17.9661 9.24353 20.9984 9.24353Z" fill="white"/>
<path d="M14.5468 8.13385C14.7791 8.32739 15.0629 8.46933 15.3597 8.55965C15.8371 8.71449 16.3403 8.7661 16.8436 8.72739C17.2565 8.68868 18.0307 8.58546 18.3016 8.26288C17.9403 7.73385 17.1274 7.44997 16.5339 7.29514C15.9532 7.1403 15.321 7.12739 14.7532 7.33385C14.5339 7.41126 14.3016 7.5661 14.3145 7.79836C14.3403 7.92739 14.4436 8.04352 14.5468 8.13385Z" fill="white"/>
<path d="M15.7209 6.86933C16.766 6.36611 17.5402 5.34675 17.7467 4.21127C17.7467 4.21127 17.7467 4.21127 17.7467 4.19836C17.1402 4.30159 16.5467 4.50804 16.0306 4.83062C15.5144 5.1532 15.0628 5.61772 14.8048 6.17256C14.4177 7.01127 15.0757 7.19191 15.7209 6.86933Z" fill="white"/>
<path d="M11.9792 9.61773C12.2502 9.75967 12.5598 9.83709 12.8566 9.86289C13.3598 9.9145 13.8631 9.86289 14.3405 9.70805C14.7276 9.59192 15.476 9.32096 15.6695 8.94676C15.205 8.50805 14.3534 8.40483 13.7469 8.36612C13.1534 8.34031 12.534 8.46934 12.0179 8.79192C11.8243 8.90805 11.6308 9.1145 11.6824 9.33386C11.7211 9.46289 11.8502 9.55321 11.9792 9.61773Z" fill="white"/>
<path d="M12.8565 8.13388C13.7726 7.43711 14.3145 6.27582 14.2887 5.11453C14.2887 5.11453 14.2887 5.11453 14.2887 5.10162C13.721 5.33388 13.1791 5.65646 12.7404 6.08227C12.3016 6.50808 11.9662 7.05001 11.8242 7.64356C11.6178 8.54679 12.2887 8.5855 12.8565 8.13388Z" fill="white"/>
<path d="M9.42439 11.3726C9.48891 11.5016 9.63084 11.5662 9.75987 11.6049C10.0566 11.6952 10.3663 11.6952 10.676 11.6694C11.1792 11.6178 11.6566 11.4629 12.0954 11.2178C12.4566 11.0113 13.1276 10.6113 13.2437 10.1984C12.7018 9.86293 11.8373 9.94035 11.2437 10.0307C10.6502 10.121 10.0696 10.3791 9.64374 10.792C9.476 10.9339 9.32116 11.1791 9.42439 11.3726Z" fill="white"/>
<path d="M10.3146 9.97906C11.063 9.08873 11.3598 7.85002 11.0888 6.72744C11.0888 6.72744 11.0888 6.72744 11.0888 6.71454C10.5856 7.06293 10.1211 7.47583 9.78558 7.99196C9.4501 8.49518 9.23074 9.10164 9.21784 9.72099C9.19203 10.6371 9.8501 10.521 10.3146 9.97906Z" fill="white"/>
<path d="M7.70821 13.2306C7.57918 13.4242 7.48886 13.6822 7.6308 13.8629C7.72112 13.9661 7.87596 14.0048 8.00499 14.0177C8.31467 14.0435 8.62434 13.979 8.90821 13.8887C9.38563 13.7339 9.82434 13.4758 10.2114 13.1403C10.5211 12.8693 11.0889 12.3274 11.1147 11.9016C10.5082 11.6951 9.68241 11.9403 9.11467 12.1597C8.55983 12.3661 8.0566 12.7274 7.70821 13.2306Z" fill="white"/>
<path d="M8.21152 12.3016C8.75345 11.2822 8.79216 10.0048 8.28894 8.95966C7.86313 9.39837 7.50184 9.91449 7.26958 10.4822C7.03733 11.05 6.947 11.6822 7.07603 12.2887C7.24378 13.179 7.87603 12.9338 8.21152 12.3016Z" fill="white"/>
<path d="M6.39197 16.65C6.49519 16.7403 6.65003 16.7403 6.79197 16.7145C7.10164 16.6758 7.38551 16.5468 7.64358 16.392C8.08229 16.1468 8.45648 15.7984 8.75326 15.3984C8.99842 15.0758 9.45003 14.4178 9.38551 13.992C8.75326 13.9145 7.99197 14.3274 7.48874 14.6629C6.98551 14.9855 6.55971 15.45 6.32745 16.0049C6.26293 16.2371 6.22422 16.5081 6.39197 16.65Z" fill="white"/>
<path d="M6.63719 15.0113C6.95977 13.9016 6.71461 12.6371 6.01784 11.7209C5.69526 12.2371 5.45009 12.8177 5.34687 13.4242C5.24364 14.0306 5.28235 14.6629 5.52751 15.2306C5.8759 16.0693 6.44364 15.6951 6.63719 15.0113Z" fill="white"/>
<path d="M6.17263 19.6307C6.4565 19.5275 6.71456 19.3468 6.94682 19.1404C7.32101 18.8049 7.61779 18.392 7.83714 17.9404C8.00489 17.5662 8.31456 16.8436 8.15972 16.4436C7.52747 16.4952 6.8694 17.063 6.4436 17.4888C6.01779 17.9146 5.69521 18.4565 5.59198 19.0501C5.55327 19.2694 5.56618 19.5533 5.77263 19.6565C5.88876 19.7081 6.0436 19.6823 6.17263 19.6307Z" fill="white"/>
<path d="M4.61131 18.4307C5.14034 19.179 5.61776 18.7016 5.66937 17.992C5.75969 16.8436 5.25647 15.6565 4.37905 14.9081C4.1726 15.4887 4.04357 16.0952 4.06937 16.7145C4.08228 17.3081 4.26292 17.9274 4.61131 18.4307Z" fill="white"/>
<path d="M5.77267 22.7016C5.90171 22.7403 6.04364 22.6758 6.17267 22.5984C6.43074 22.4306 6.65009 22.2113 6.83074 21.9532C7.12751 21.5532 7.33396 21.0758 7.45009 20.5855C7.54041 20.1855 7.68235 19.4113 7.45009 19.05C6.84364 19.2306 6.31461 19.9274 5.99203 20.4306C5.66945 20.9339 5.463 21.5274 5.4888 22.1339C5.4759 22.379 5.55332 22.65 5.77267 22.7016Z" fill="white"/>
<path d="M4.39213 21.7597C5.0631 22.392 5.42439 21.8242 5.33407 21.1017C5.17923 19.9533 4.44374 18.9081 3.42439 18.3533C3.34697 18.9597 3.34697 19.592 3.50181 20.1855C3.64374 20.7791 3.94052 21.3339 4.39213 21.7597Z" fill="white"/>
<path d="M6.4179 25.6952C6.55983 25.7081 6.68887 25.6178 6.77919 25.5145C6.99855 25.2952 7.16629 25.0371 7.28242 24.7533C7.48887 24.2887 7.59209 23.7984 7.605 23.2952C7.605 22.8823 7.59209 22.0952 7.29532 21.7855C6.74048 22.0952 6.36629 22.8694 6.14693 23.4371C5.92758 24.0049 5.86306 24.6242 6.005 25.2049C6.05661 25.4371 6.19854 25.6823 6.4179 25.6952Z" fill="white"/>
<path d="M4.86941 25.05C5.65651 25.5274 5.90167 24.8952 5.65651 24.2113C5.26941 23.1275 4.32747 22.25 3.2178 21.9146C3.2178 21.9146 3.2178 21.9146 3.2049 21.9146C3.25651 22.521 3.38554 23.1404 3.65651 23.6823C3.92748 24.25 4.34038 24.7403 4.86941 25.05Z" fill="white"/>
<path d="M7.66944 28.4823C7.81138 28.4565 7.9146 28.3403 7.99202 28.2242C8.15977 27.9661 8.26299 27.6694 8.32751 27.3726C8.43073 26.8823 8.43073 26.3661 8.32751 25.8758C8.25009 25.4758 8.06944 24.7145 7.70815 24.4694C7.21783 24.8823 7.02428 25.721 6.93396 26.3274C6.84364 26.921 6.89525 27.5532 7.16622 28.0823C7.26944 28.3016 7.45009 28.521 7.66944 28.4823Z" fill="white"/>
<path d="M6.6113 27.2049C6.00485 26.2242 4.90808 25.5533 3.74679 25.463C3.74679 25.463 3.74679 25.463 3.73389 25.463C3.90163 26.0565 4.15969 26.6242 4.54679 27.1017C4.92098 27.5791 5.42421 27.9791 6.00485 28.1726C6.89518 28.4823 6.9855 27.8113 6.6113 27.2049Z" fill="white"/>
<path d="M8.90825 30.6758C9.05019 30.8565 9.26954 31.0242 9.476 30.9468C9.60503 30.8952 9.68245 30.7662 9.73406 30.6371C9.85019 30.3533 9.8889 30.0436 9.8889 29.7339C9.8889 29.2307 9.78567 28.7275 9.57922 28.2758C9.41148 27.9016 9.076 27.192 8.676 27.0242C8.2889 27.5275 8.276 28.392 8.3018 28.9984C8.34051 29.6049 8.53406 30.2113 8.90825 30.6758Z" fill="white"/>
<path d="M8.17273 29.9145C7.37273 29.0758 6.15983 28.6629 5.01144 28.8049C5.01144 28.8049 5.01144 28.8049 4.99854 28.8049C5.28241 29.3468 5.6566 29.85 6.13402 30.2371C6.61144 30.6242 7.17918 30.9081 7.78563 30.9855C8.71466 31.1145 8.67595 30.4307 8.17273 29.9145Z" fill="white"/>
<path d="M10.1598 29.321C9.88884 29.9016 10.0437 30.7403 10.2114 31.3339C10.3663 31.9145 10.6759 32.4565 11.1405 32.8565C11.3082 32.9984 11.5663 33.1274 11.7598 32.9984C11.8759 32.921 11.9276 32.7791 11.9534 32.6371C12.005 32.3403 11.9792 32.0178 11.9147 31.721C11.8114 31.2307 11.605 30.7661 11.3082 30.3532C11.063 30.0178 10.5856 29.3984 10.1598 29.321Z" fill="white"/>
<path d="M10.1211 33.3855C11.0372 33.3081 10.8566 32.65 10.2631 32.25C9.30822 31.6048 8.0308 31.4371 6.94692 31.8242C6.94692 31.8242 6.94692 31.8242 6.93402 31.8242C7.33402 32.2887 7.79854 32.7016 8.34047 32.9984C8.89531 33.2822 9.51467 33.4371 10.1211 33.3855Z" fill="white"/>
<path d="M13.4114 32.0307C13.1146 31.7468 12.5082 31.2436 12.0824 31.2565C11.9275 31.8758 12.2759 32.6758 12.5469 33.2178C12.8179 33.7468 13.2308 34.2242 13.7598 34.5081C13.9533 34.6113 14.2372 34.6887 14.3921 34.521C14.4953 34.4177 14.5082 34.2629 14.5082 34.1339C14.4953 33.8242 14.405 33.5274 14.2759 33.2436C14.0824 32.779 13.7856 32.3661 13.4114 32.0307Z" fill="white"/>
<path d="M12.792 34.0952C11.721 33.6564 10.4436 33.7597 9.46295 34.3661C9.95327 34.7403 10.4952 35.05 11.0759 35.2177C11.6694 35.3855 12.3017 35.4113 12.8952 35.2306C13.7726 34.9726 13.463 34.3661 12.792 34.0952Z" fill="white"/>
<path d="M16.6888 35.5661C16.9081 35.6307 17.192 35.6436 17.3081 35.45C17.3856 35.3339 17.3727 35.1791 17.334 35.0371C17.2565 34.7403 17.1146 34.4694 16.934 34.2113C16.6372 33.8113 16.263 33.4629 15.8243 33.2049C15.4759 32.9984 14.7791 32.6242 14.3662 32.7274C14.3533 33.3597 14.8436 34.0694 15.2307 34.5468C15.6049 35.0242 16.1211 35.3984 16.6888 35.5661Z" fill="white"/>
<path d="M15.6564 35.3855C14.5209 35.179 13.2951 35.5532 12.4564 36.3532C13.0113 36.6242 13.6048 36.8048 14.2113 36.8436C14.8177 36.8823 15.45 36.779 15.9919 36.4694C16.7919 36.0306 16.3661 35.5016 15.6564 35.3855Z" fill="white"/>
<path d="M19.734 34.65C19.3599 34.3145 18.9211 34.0565 18.4437 33.9016C18.0566 33.7726 17.2953 33.5533 16.9211 33.7339C17.0373 34.3662 17.6695 34.9468 18.147 35.3339C18.6115 35.7081 19.1921 35.9791 19.7857 36.0178C20.0179 36.0307 20.2889 35.992 20.3663 35.7726C20.4179 35.6436 20.3663 35.4887 20.3147 35.3726C20.1599 35.0887 19.9663 34.8436 19.734 34.65Z" fill="white"/>
<path d="M18.7146 36.0436C17.5533 36.0823 16.4307 36.7017 15.7856 37.6565C16.3791 37.7984 16.9985 37.863 17.6049 37.7726C18.2114 37.6823 18.8049 37.45 19.2695 37.0371C19.9662 36.4436 19.4372 36.0178 18.7146 36.0436Z" fill="white"/>
<path d="M24.8566 8.79191C25.3598 8.83062 25.863 8.77901 26.3405 8.62417C26.6372 8.53384 26.9082 8.39191 27.1534 8.19836C27.2566 8.10804 27.3598 7.99191 27.3727 7.84997C27.3856 7.61771 27.1534 7.46288 26.934 7.39836C26.3663 7.19191 25.734 7.20481 25.1534 7.35965C24.5598 7.51449 23.7469 7.81126 23.3856 8.32739C23.6695 8.66288 24.4437 8.7661 24.8566 8.79191Z" fill="white"/>
<path d="M25.9662 6.93385C26.6114 7.24352 27.2694 7.07578 26.8694 6.23707C26.6114 5.68223 26.1597 5.23062 25.6436 4.89514C25.1275 4.57256 24.5339 4.37901 23.9275 4.26288C23.9275 4.26288 23.9275 4.26288 23.9275 4.27578C24.1468 5.42417 24.921 6.44352 25.9662 6.93385Z" fill="white"/>
<path d="M29.6824 8.83063C29.1662 8.52095 28.5469 8.39192 27.9533 8.43063C27.3469 8.46934 26.4824 8.57257 26.0308 9.01127C26.2372 9.38547 26.9727 9.64353 27.3727 9.77256C27.8501 9.9145 28.3662 9.96611 28.8566 9.9145C29.1662 9.87579 29.463 9.81127 29.734 9.66934C29.863 9.60482 29.9791 9.5145 30.0179 9.37256C30.0695 9.15321 29.8759 8.95966 29.6824 8.83063Z" fill="white"/>
<path d="M28.8437 8.19837C29.4115 8.63708 30.0824 8.59837 29.876 7.70805C29.7341 7.1145 29.3986 6.57256 28.947 6.14676C28.5082 5.72095 27.9663 5.41127 27.3986 5.17902C27.3986 5.17902 27.3986 5.17902 27.3986 5.19192C27.3728 6.3274 27.9276 7.48869 28.8437 8.19837Z" fill="white"/>
<path d="M28.4695 10.2371C28.5857 10.65 29.2566 11.0629 29.6179 11.2565C30.0566 11.5016 30.547 11.6565 31.0502 11.7081C31.3599 11.7339 31.6695 11.7339 31.9663 11.6436C32.0953 11.6049 32.2373 11.5403 32.3018 11.4113C32.405 11.2049 32.2502 10.9726 32.0824 10.8178C31.6437 10.4049 31.0631 10.1597 30.4695 10.0694C29.8631 9.97904 29.0115 9.90162 28.4695 10.2371Z" fill="white"/>
<path d="M32.4953 9.74676C32.4824 9.1274 32.263 8.53386 31.9146 8.03063C31.5662 7.5274 31.1017 7.1016 30.5985 6.76611C30.5985 6.76611 30.5985 6.76611 30.5985 6.77902C30.3275 7.9016 30.6372 9.15321 31.3856 10.0306C31.8501 10.5597 32.5211 10.6629 32.4953 9.74676Z" fill="white"/>
<path d="M30.5986 11.9403C30.6244 12.3661 31.205 12.9081 31.5147 13.179C31.8889 13.5016 32.3405 13.7597 32.8179 13.9145C33.1147 14.0049 33.4115 14.0694 33.7211 14.0436C33.8631 14.0307 34.0179 14.0049 34.0953 13.8887C34.2373 13.7081 34.134 13.45 34.005 13.2565C33.6695 12.7661 33.1534 12.4048 32.5857 12.1855C32.0179 11.9661 31.1921 11.721 30.5986 11.9403Z" fill="white"/>
<path d="M34.6502 12.3016C34.7663 11.6952 34.676 11.0629 34.4438 10.4952C34.2115 9.92743 33.8502 9.42421 33.4244 8.9726C32.9341 10.0178 32.9599 11.2952 33.5147 12.3145C33.8502 12.9597 34.4696 13.2049 34.6502 12.3016Z" fill="white"/>
<path d="M32.3274 14.0436C32.2629 14.4694 32.7145 15.1145 32.9597 15.4371C33.2564 15.8371 33.6435 16.1726 34.0822 16.4307C34.3532 16.5855 34.6371 16.7016 34.9468 16.7403C35.0887 16.7532 35.2435 16.7532 35.3468 16.6629C35.5274 16.521 35.4758 16.2371 35.3984 16.0307C35.1661 15.4758 34.7403 15.0113 34.2371 14.6887C33.721 14.3791 32.9597 13.9532 32.3274 14.0436Z" fill="white"/>
<path d="M36.2113 15.2435C36.4435 14.6758 36.4952 14.0435 36.379 13.4371C36.2758 12.8306 36.0177 12.2629 35.6952 11.7468C34.9984 12.6629 34.7661 13.9274 35.0887 15.0371C35.2952 15.721 35.8629 16.0823 36.2113 15.2435Z" fill="white"/>
<path d="M34.8049 19.1661C35.0372 19.3726 35.2952 19.5532 35.5791 19.6565C35.7081 19.7081 35.863 19.7339 35.992 19.6694C36.1985 19.5661 36.2114 19.2823 36.1727 19.0629C36.0694 18.4694 35.734 17.9274 35.3081 17.5145C34.8694 17.0887 34.2243 16.521 33.5791 16.4694C33.4372 16.8694 33.734 17.6048 33.9146 17.9661C34.1211 18.4177 34.4307 18.8307 34.8049 19.1661Z" fill="white"/>
<path d="M36.0823 18.0049C36.1339 18.7145 36.6113 19.192 37.1404 18.4436C37.4887 17.9403 37.6694 17.321 37.6823 16.7145C37.7081 16.0952 37.5791 15.4887 37.3597 14.9081C36.4823 15.6694 35.992 16.8565 36.0823 18.0049Z" fill="white"/>
<path d="M35.992 22.7275C36.2114 22.6629 36.2888 22.392 36.2888 22.1726C36.3017 21.5662 36.0953 20.9726 35.7727 20.4694C35.4372 19.9662 34.9211 19.2694 34.3017 19.0887C34.0695 19.45 34.2243 20.2242 34.3146 20.6242C34.4307 21.1146 34.6372 21.5791 34.934 21.9791C35.1146 22.2242 35.334 22.4565 35.592 22.6113C35.7211 22.7016 35.863 22.7662 35.992 22.7275Z" fill="white"/>
<path d="M36.4306 21.1145C36.3403 21.8242 36.7016 22.3919 37.3726 21.7597C37.8242 21.3339 38.1209 20.779 38.2629 20.1726C38.4048 19.579 38.4177 18.9468 38.3274 18.3403C37.308 18.921 36.5855 19.9661 36.4306 21.1145Z" fill="white"/>
<path d="M35.3598 25.721C35.5921 25.7081 35.7211 25.4629 35.7727 25.2436C35.9146 24.6629 35.8372 24.0307 35.6179 23.4758C35.3985 22.9081 35.0243 22.121 34.4695 21.8242C34.1727 22.1339 34.1598 22.921 34.1598 23.3339C34.1727 23.8371 34.2759 24.3403 34.4824 24.792C34.6114 25.0758 34.7662 25.3339 34.9985 25.5532C35.1017 25.6307 35.2308 25.721 35.3598 25.721Z" fill="white"/>
<path d="M38.5469 21.9274C37.4372 22.2629 36.5081 23.1403 36.1211 24.2371C35.8759 24.9081 36.1211 25.5403 36.9082 25.0629C37.4372 24.7403 37.8372 24.25 38.1082 23.7081C38.3791 23.1532 38.5082 22.5468 38.5469 21.9274Z" fill="white"/>
<path d="M34.1209 28.5081C34.3403 28.5468 34.5209 28.3274 34.6242 28.121C34.8822 27.5791 34.9338 26.9468 34.8435 26.3532C34.7403 25.7468 34.5467 24.9081 34.0564 24.4952C33.6951 24.7403 33.5145 25.5016 33.4371 25.9016C33.3467 26.392 33.3467 26.9081 33.45 27.3984C33.5145 27.6952 33.6177 27.992 33.7854 28.25C33.8887 28.3791 33.9919 28.4952 34.1209 28.5081Z" fill="white"/>
<path d="M35.179 27.2178C34.8048 27.8242 34.908 28.4952 35.7726 28.1984C36.3532 27.992 36.8564 27.6049 37.2306 27.1145C37.6048 26.6242 37.8629 26.0565 38.0306 25.4758C38.0306 25.4758 38.0306 25.4758 38.0177 25.4758C36.8693 25.5662 35.7855 26.2371 35.179 27.2178Z" fill="white"/>
<path d="M32.2114 28.3145C32.0178 28.779 31.9146 29.2823 31.9146 29.7855C31.9146 30.0952 31.9533 30.4048 32.0695 30.6887C32.1211 30.8177 32.1985 30.9468 32.3275 30.9984C32.534 31.0758 32.7533 30.9081 32.8953 30.7274C33.2566 30.25 33.4501 29.6436 33.4759 29.05C33.5017 28.4436 33.4888 27.579 33.1017 27.0758C32.7017 27.2177 32.3662 27.9274 32.2114 28.3145Z" fill="white"/>
<path d="M33.6307 29.9532C33.1404 30.4694 33.1017 31.1403 34.0178 31.0242C34.6243 30.9468 35.2049 30.6629 35.6694 30.2758C36.1339 29.8758 36.5081 29.3726 36.792 28.8307C36.792 28.8307 36.792 28.8307 36.7791 28.8307C35.6307 28.6758 34.4307 29.1145 33.6307 29.9532Z" fill="white"/>
<path d="M30.5081 30.392C30.2242 30.8049 30.0178 31.2694 29.9146 31.7597C29.85 32.0565 29.8242 32.3662 29.8758 32.6758C29.9017 32.8178 29.9533 32.9597 30.0694 33.0371C30.2629 33.1533 30.5081 33.0371 30.6887 32.8823C31.1404 32.4952 31.45 31.9404 31.6049 31.3597C31.7597 30.7662 31.9146 29.9274 31.6436 29.3468C31.2178 29.4371 30.7404 30.0565 30.5081 30.392Z" fill="white"/>
<path d="M31.5532 32.2887C30.9597 32.6887 30.7919 33.3468 31.7081 33.4242C32.3145 33.4758 32.9339 33.321 33.4758 33.0242C34.0178 32.7403 34.4823 32.3145 34.8823 31.85C34.8823 31.85 34.8823 31.85 34.8694 31.85C33.7726 31.4758 32.5081 31.6436 31.5532 32.2887Z" fill="white"/>
<path d="M28.0566 34.5597C28.5856 34.2758 28.9985 33.7984 29.2695 33.2564C29.5405 32.7145 29.876 31.9145 29.7211 31.2952C29.2953 31.2823 28.7018 31.7984 28.3921 32.0694C28.0308 32.4177 27.7211 32.8306 27.5276 33.2823C27.3985 33.5661 27.3211 33.8629 27.3082 34.1726C27.3082 34.3145 27.3211 34.4694 27.4244 34.5597C27.5792 34.7403 27.8502 34.6629 28.0566 34.5597Z" fill="white"/>
<path d="M29.0243 34.1468C28.3663 34.4177 28.0566 35.0242 28.934 35.2822C29.5275 35.4629 30.1598 35.4371 30.7533 35.2693C31.3469 35.1016 31.8888 34.7919 32.3662 34.4048C31.3727 33.8113 30.0953 33.7081 29.0243 34.1468Z" fill="white"/>
<path d="M25.9922 33.2823C25.5663 33.5403 25.1793 33.8887 24.8954 34.2887C24.7147 34.5339 24.5728 34.8177 24.4954 35.1145C24.4567 35.2564 24.4438 35.4113 24.5212 35.5274C24.6502 35.721 24.9212 35.7081 25.1405 35.6435C25.7212 35.4758 26.2244 35.1016 26.5986 34.6242C26.9857 34.1468 27.476 33.4371 27.4502 32.8048C27.0373 32.7016 26.3405 33.0758 25.9922 33.2823Z" fill="white"/>
<path d="M26.1726 35.45C25.4629 35.579 25.0371 36.1081 25.85 36.5468C26.3919 36.8435 27.0113 36.9468 27.6306 36.908C28.2371 36.8693 28.8435 36.6758 29.3855 36.4048C28.5468 35.6048 27.321 35.2435 26.1726 35.45Z" fill="white"/>
<path d="M24.9082 33.7984C24.5211 33.6178 23.7727 33.8371 23.3856 33.9662C22.9082 34.1339 22.4695 34.392 22.0953 34.7274C21.863 34.9339 21.6695 35.1662 21.5276 35.45C21.463 35.5791 21.4243 35.721 21.4759 35.85C21.5534 36.0565 21.8372 36.1081 22.0566 36.0952C22.6501 36.0436 23.2308 35.7855 23.6953 35.3984C24.1727 35.0113 24.7921 34.4307 24.9082 33.7984Z" fill="white"/>
<path d="M23.1146 36.121C22.392 36.0952 21.8759 36.521 22.5727 37.1274C23.0372 37.5274 23.6307 37.7597 24.2372 37.85C24.8436 37.9403 25.463 37.8758 26.0565 37.721C25.3985 36.7661 24.2759 36.1468 23.1146 36.121Z" fill="white"/>
<path fill-rule="evenodd" clip-rule="evenodd" d="M20.6242 1.25806C15.642 1.25806 10.6718 3.15325 6.86874 6.91653L6.86778 6.91748L6.78941 6.99586L6.78814 6.99713C3.01067 10.8011 1.12903 15.785 1.12903 20.7532V21.3597C1.12903 26.328 3.01067 31.3118 6.78814 35.1158L6.78941 35.1171L6.86683 35.1945L6.8681 35.1957C10.6721 38.9732 15.6559 40.8549 20.6242 40.8549H21.2177C26.1874 40.8549 31.1571 38.9595 34.9726 35.197L34.9739 35.1957L34.9751 35.1945L34.9753 35.1943L34.9756 35.194L34.9759 35.1937L34.976 35.1936L34.9763 35.1933L34.9766 35.193L34.9769 35.1927L34.9774 35.1922L34.9775 35.1921L34.9778 35.1918L34.9782 35.1915L34.9785 35.1912L34.9797 35.1899C34.9799 35.1897 34.9795 35.1901 34.9798 35.1898L34.9803 35.1893C34.9805 35.1891 34.9801 35.1895 34.9804 35.1892L34.9806 35.189L34.9809 35.1887L34.9812 35.1884C34.9814 35.1882 34.9811 35.1885 34.9813 35.1883L34.9818 35.1878L34.9819 35.1877L34.9821 35.1875L34.9824 35.1872L34.9827 35.1869L34.9828 35.1868L34.9841 35.1855C34.9841 35.1855 34.9838 35.1858 34.9842 35.1854C34.9846 35.185 34.9843 35.1853 34.9843 35.1853L34.9848 35.1848L34.985 35.1846L34.9851 35.1845L34.9857 35.1839L34.9859 35.1837L34.9889 35.1807L34.9892 35.1804L34.9893 35.1803L34.9898 35.1798L34.9899 35.1797L34.9901 35.1795L34.9907 35.1789C34.991 35.1786 34.9906 35.179 34.9909 35.1787L34.9913 35.1783L34.9915 35.1781L34.9916 35.178L34.9922 35.1774L34.9924 35.1772L34.9927 35.1769C34.9931 35.1765 34.9928 35.1768 34.9928 35.1768L34.993 35.1766L34.9933 35.1763L34.9934 35.1762L34.9945 35.1751L34.9946 35.175L34.9951 35.1745L34.9952 35.1744L34.9954 35.1742L34.9957 35.1739L34.996 35.1736L34.9963 35.1733L34.9966 35.173L34.9967 35.1729L34.9969 35.1727L34.9974 35.1722L34.9975 35.1721L34.9978 35.1718L34.999 35.1706L34.9992 35.1704L34.9995 35.1701L34.9998 35.1698L34.9999 35.1697L35.0022 35.1674L35.0025 35.1671L35.0026 35.167L35.0029 35.1667L35.0033 35.1664L35.0034 35.1662L35.0037 35.1659L35.004 35.1656L35.0042 35.1654L35.0045 35.1651L35.0048 35.1648L35.0049 35.1647L35.0052 35.1644L35.0055 35.1641L35.0057 35.1639L35.006 35.1636L35.0063 35.1633L35.0064 35.1632L35.0067 35.1629L35.007 35.1626L35.0072 35.1624L35.0075 35.1621L35.0078 35.1618L35.0079 35.1617L35.0082 35.1614L35.0085 35.1611L35.0087 35.1609L35.009 35.1606L35.0093 35.1603L35.0094 35.1602L35.0098 35.1598L35.0101 35.1595L35.0102 35.1594L35.0105 35.1591L35.0108 35.1588L35.011 35.1586L35.0113 35.1583L35.0116 35.158L35.0117 35.1579L35.012 35.1576L35.0123 35.1573L35.0125 35.1571L35.0128 35.1568L35.0131 35.1565L35.0132 35.1564L35.0135 35.1561L35.0138 35.1558L35.0525 35.1171L35.0538 35.1158C38.8313 31.3118 40.7129 26.328 40.7129 21.3597V20.7661C40.7129 15.7965 38.8175 10.8267 35.0551 7.01131L35.0538 7.01003L34.9751 6.93134L34.9739 6.93007C31.1699 3.1526 26.186 1.27096 21.2177 1.27096H20.921C20.8883 1.27096 20.8525 1.26891 20.8009 1.26558L20.7918 1.26499C20.7471 1.26209 20.6851 1.25806 20.6242 1.25806ZM7.59256 7.648L7.59354 7.64703L7.59154 7.64903L7.59256 7.648L7.59354 7.64703C7.65182 7.58937 7.71038 7.53217 7.76923 7.47544C7.94953 7.58162 8.16962 7.56494 8.34194 7.4129C8.51377 7.25117 8.551 7.03402 8.45982 6.84208C8.6281 6.69531 8.7984 6.55207 8.97064 6.41236C9.14543 6.53878 9.36802 6.54967 9.54194 6.40644C9.7369 6.26279 9.78498 6.0457 9.70565 5.84601C9.88862 5.71218 10.0735 5.58211 10.2602 5.4558C10.4206 5.60578 10.6457 5.64211 10.8452 5.51612C11.055 5.37973 11.1198 5.15803 11.0535 4.94813C11.2446 4.8326 11.4373 4.72082 11.6316 4.6128C11.778 4.78319 12.0108 4.83866 12.2258 4.74193C12.4583 4.63123 12.5483 4.39706 12.4795 4.1698C12.6765 4.07332 12.8749 3.98054 13.0745 3.89146C13.207 4.09133 13.4279 4.16962 13.6581 4.07096C13.8982 3.97273 13.9998 3.75447 13.9552 3.52553C14.1608 3.44627 14.3675 3.3708 14.5753 3.29914C14.6816 3.51408 14.9085 3.62031 15.1548 3.54193C15.413 3.46336 15.5345 3.24808 15.5022 3.00653C15.7092 2.94713 15.9171 2.89141 16.1256 2.83935C16.2156 3.07432 16.4263 3.199 16.6774 3.14193C16.9375 3.08538 17.0787 2.88014 17.0662 2.63047C17.2773 2.58931 17.489 2.55185 17.7012 2.51809C17.7696 2.76543 17.9832 2.9187 18.2387 2.88386C18.5176 2.849 18.671 2.64663 18.6704 2.38992C18.9276 2.36277 19.1852 2.341 19.4433 2.3246C19.476 2.58356 19.6819 2.76665 19.9419 2.75483C20.2249 2.74304 20.4001 2.54816 20.4184 2.28825C20.487 2.28749 20.5556 2.28711 20.6242 2.28711C20.6494 2.28711 20.6797 2.28896 20.7346 2.2925L20.7361 2.2926C20.7844 2.29571 20.8511 2.30002 20.921 2.30002H21.2177C21.2533 2.30002 21.2889 2.30012 21.3245 2.30032C21.3473 2.55417 21.5215 2.74323 21.8 2.75483C22.0578 2.76655 22.2624 2.58672 22.2978 2.3313C22.5561 2.34628 22.8142 2.36664 23.0719 2.39238C23.0743 2.64792 23.2368 2.84911 23.5032 2.88386C23.7598 2.91885 23.9741 2.76415 24.0416 2.515C24.2539 2.54753 24.4658 2.58375 24.6771 2.62366C24.6559 2.88219 24.7976 3.0968 25.0645 3.15483C25.3227 3.20178 25.5489 3.06723 25.6265 2.82886C25.8325 2.87904 26.0377 2.93279 26.2421 2.99012C26.202 3.23828 26.3231 3.46158 26.5871 3.54193C26.841 3.62273 27.0743 3.50733 27.1761 3.27888C27.3826 3.34874 27.5881 3.42236 27.7924 3.49971C27.7347 3.73792 27.8347 3.96904 28.0839 4.07096C28.3242 4.17397 28.5544 4.08408 28.6844 3.86432C28.8818 3.95108 29.0779 4.04146 29.2727 4.13545C29.1983 4.36697 29.2765 4.6035 29.5161 4.72903C29.7417 4.84183 29.9871 4.77713 30.1314 4.57802C30.3241 4.68385 30.5153 4.79338 30.7049 4.90659C30.6135 5.13533 30.6718 5.36987 30.8968 5.51612C31.1111 5.65148 31.355 5.59948 31.5164 5.42048C31.6955 5.54057 31.8729 5.66413 32.0486 5.79116C31.9364 6.00494 31.9741 6.24951 32.1871 6.40644C32.3887 6.56324 32.6389 6.53533 32.8111 6.37335C32.9793 6.50877 33.1455 6.64757 33.3099 6.78976C33.182 6.99356 33.2013 7.23628 33.4 7.4129C33.5891 7.57974 33.8357 7.58358 34.0242 7.44095C34.0993 7.5131 34.174 7.58602 34.2482 7.65971L34.2487 7.66026L34.3224 7.73386L34.3236 7.73509C34.3841 7.79649 34.4441 7.85821 34.5036 7.92023C34.3617 8.11598 34.3588 8.3588 34.5355 8.53548C34.7091 8.71995 34.9466 8.74016 35.1482 8.6268C35.292 8.79267 35.4324 8.96046 35.5694 9.13008C35.4032 9.308 35.3857 9.5475 35.5419 9.74838C35.6975 9.95945 35.9391 9.99837 36.1515 9.88982C36.2793 10.0658 36.4037 10.2436 36.5246 10.423C36.3391 10.5928 36.2968 10.8355 36.4323 11.0387C36.5774 11.262 36.8191 11.3211 37.0404 11.2326C37.1533 11.4203 37.2625 11.6096 37.3682 11.8003C37.1607 11.9524 37.0916 12.2012 37.2065 12.4193C37.3232 12.6645 37.5772 12.7512 37.8156 12.6604C37.911 12.8562 38.0028 13.0533 38.0909 13.2516C37.8688 13.3719 37.7707 13.6182 37.8645 13.8645C37.9701 14.1227 38.2145 14.2208 38.4617 14.149C38.5389 14.3507 38.6124 14.5534 38.6822 14.757C38.4454 14.8654 38.3242 15.1015 38.4064 15.3484C38.4886 15.6183 38.7202 15.7388 38.9751 15.6904C39.0333 15.8946 39.0879 16.0996 39.1389 16.3053C38.887 16.3872 38.7333 16.6178 38.7935 16.871C38.8533 17.146 39.0794 17.2881 39.3484 17.256C39.3897 17.4701 39.4272 17.6847 39.4608 17.8999C39.1957 17.9572 39.0283 18.1672 39.0645 18.4452C39.1007 18.7344 39.317 18.8886 39.5872 18.8761C39.6087 19.086 39.6267 19.2961 39.641 19.5065C39.3662 19.5365 39.1684 19.7364 39.1806 20.0064C39.193 20.3018 39.4047 20.4797 39.6817 20.4844C39.6832 20.5783 39.6839 20.6722 39.6839 20.7661V21.3597C39.6839 21.4547 39.6831 21.5496 39.6817 21.6446C39.4047 21.6493 39.193 21.8273 39.1806 22.1226C39.1684 22.4049 39.3662 22.6054 39.641 22.6243C39.6261 22.8429 39.6074 23.0613 39.5848 23.2794C39.3097 23.2636 39.0882 23.4289 39.0516 23.7097C39.0272 23.9781 39.199 24.1889 39.4578 24.2546C39.4254 24.4613 39.3894 24.6675 39.3499 24.8732C39.0802 24.8404 38.8535 24.9825 38.7935 25.2581C38.7331 25.5239 38.8877 25.7558 39.1408 25.8266C39.0889 26.0364 39.0333 26.2456 38.974 26.4539C38.7145 26.3994 38.477 26.5194 38.3936 26.7935C38.3222 27.0434 38.4483 27.2824 38.6809 27.3889C38.6115 27.5912 38.5385 27.7926 38.4619 27.9929C38.2146 27.9211 37.9702 28.0192 37.8645 28.2774C37.7706 28.5238 37.8689 28.7703 38.0912 28.8905C38.0027 29.0897 37.9106 29.2875 37.8147 29.4841C37.5786 29.4015 37.3346 29.4779 37.2065 29.7226C37.0917 29.9521 37.1607 30.1919 37.368 30.3419C37.264 30.5294 37.1565 30.7154 37.0455 30.8999C36.8156 30.8064 36.5793 30.8641 36.4323 31.0903C36.2962 31.3057 36.3395 31.551 36.527 31.7124C36.4035 31.8953 36.2763 32.0764 36.1454 32.2557C35.9314 32.1427 35.6862 32.1802 35.529 32.3935C35.3836 32.5949 35.403 32.835 35.5621 33.013C35.4265 33.1799 35.2875 33.345 35.1452 33.5081C34.9442 33.3894 34.7082 33.4121 34.5355 33.6064C34.3623 33.7905 34.3616 34.029 34.4955 34.2154C34.4388 34.2739 34.3817 34.3321 34.3242 34.3901L34.2903 34.4224L34.2584 34.4528C34.2573 34.4539 34.2562 34.455 34.2551 34.4561L34.2258 34.4839L34.1613 34.5484C34.083 34.6255 34.0917 34.6191 34.0124 34.6946C33.8195 34.5591 33.5849 34.57 33.4129 34.7419C33.2346 34.9098 33.2012 35.1373 33.3059 35.3344C33.1397 35.4774 32.9717 35.617 32.8018 35.7532C32.623 35.605 32.3842 35.5838 32.2 35.7355C31.9952 35.8863 31.9525 36.1182 32.0492 36.3259C31.8686 36.4562 31.6862 36.583 31.502 36.7061C31.3407 36.5396 31.1048 36.4944 30.8968 36.6258C30.6797 36.7669 30.6178 36.9993 30.6958 37.2156C30.5063 37.3286 30.3151 37.4381 30.1225 37.5438C29.9771 37.362 29.7372 37.3005 29.5161 37.4C29.2792 37.5128 29.1902 37.7539 29.2665 37.9852C29.07 38.0801 28.8721 38.1714 28.673 38.259C28.5412 38.0528 28.3173 37.9709 28.0839 38.071C27.8419 38.1699 27.7406 38.3907 27.7878 38.6216C27.5821 38.6996 27.3753 38.7739 27.1674 38.8445C27.0615 38.6284 26.8341 38.5214 26.5871 38.6C26.33 38.6782 26.2085 38.8921 26.2393 39.1324C26.0328 39.1906 25.8254 39.2451 25.6174 39.2959C25.5323 39.0653 25.3132 38.9435 25.0645 39C24.8083 39.0557 24.6674 39.2557 24.6753 39.5004C24.463 39.5407 24.2501 39.5773 24.0368 39.6101C23.9644 39.3709 23.7539 39.2239 23.5032 39.2581C23.2313 39.292 23.0787 39.4853 23.0718 39.7328C22.8134 39.7588 22.5545 39.7793 22.2953 39.7944C22.2537 39.5476 22.0523 39.3756 21.8 39.3871C21.5274 39.3985 21.3548 39.5798 21.3262 39.8255C21.3108 39.8256 21.2954 39.8256 21.2801 39.8257C21.2647 39.8257 21.2493 39.8258 21.2339 39.8258L20.6242 39.8258C20.5547 39.8258 20.4852 39.8254 20.4157 39.8246C20.3868 39.5794 20.2142 39.3984 19.9419 39.3871C19.6916 39.3757 19.4914 39.545 19.4476 39.7887C19.1878 39.7722 18.9283 39.7504 18.6692 39.7231C18.6562 39.4802 18.4959 39.2916 18.2387 39.2581C17.9927 39.2245 17.7855 39.3654 17.7094 39.5966C17.4947 39.5627 17.2805 39.5249 17.0669 39.4834C17.0679 39.2465 16.9277 39.0544 16.6774 39C16.4354 38.945 16.231 39.0588 16.1359 39.2774C15.9249 39.225 15.7146 39.1688 15.5052 39.1089C15.5254 38.8782 15.4035 38.6757 15.1548 38.6C14.9173 38.5244 14.6979 38.6205 14.5872 38.8201C14.3769 38.7479 14.1676 38.6718 13.9594 38.5917C13.9923 38.3719 13.8895 38.1657 13.6581 38.071C13.4356 37.9756 13.2218 38.0455 13.0881 38.2308C12.8856 38.1408 12.6843 38.0469 12.4845 37.9492C12.5296 37.7367 12.4457 37.5281 12.2258 37.4129C12.0199 37.31 11.7977 37.3548 11.6506 37.5148C11.4516 37.4045 11.2542 37.2902 11.0585 37.172C11.1163 36.9641 11.0494 36.7586 10.8452 36.6258C10.6521 36.5039 10.4351 36.534 10.2759 36.6719C10.0899 36.5463 9.9056 36.4169 9.72323 36.2837C9.79587 36.0874 9.74584 35.8762 9.55484 35.7355C9.37549 35.596 9.15767 35.6027 8.99051 35.7199C8.81484 35.5776 8.6412 35.4316 8.46968 35.2818C8.55327 35.0944 8.51821 34.8857 8.34194 34.729C8.1755 34.5822 7.9645 34.5616 7.78783 34.656C7.72282 34.5933 7.65815 34.53 7.59383 34.4662L7.59321 34.4656L7.51833 34.3907L7.51777 34.3901C7.43955 34.3113 7.36218 34.232 7.28567 34.1522C7.37808 33.9772 7.36063 33.7703 7.20645 33.6064C7.05365 33.4441 6.85137 33.4019 6.66762 33.4746C6.51646 33.3005 6.3691 33.1242 6.22556 32.9458C6.34044 32.7774 6.33763 32.5705 6.2 32.3935C6.06355 32.2084 5.86085 32.1557 5.66973 32.2189C5.53492 32.0332 5.404 31.8455 5.27697 31.656C5.41035 31.4924 5.42915 31.2824 5.30968 31.1032C5.1829 30.9082 4.98242 30.8384 4.78622 30.8828C4.66753 30.6851 4.55286 30.4856 4.44222 30.2845C4.59513 30.1347 4.63655 29.9247 4.53549 29.7226C4.43294 29.5072 4.22446 29.4141 4.01365 29.4562C3.91532 29.2537 3.82089 29.0498 3.73038 28.8445C3.89521 28.7073 3.95919 28.4948 3.87742 28.2903C3.78572 28.0662 3.58944 27.9627 3.37751 27.9862C3.29543 27.7714 3.21749 27.5552 3.14371 27.338C3.32393 27.2168 3.40738 27.0092 3.33548 26.7935C3.26395 26.5585 3.07912 26.4368 2.8643 26.4412C2.80371 26.2277 2.74702 26.0134 2.69423 25.7983C2.89063 25.6956 3.00099 25.4919 2.94839 25.271C2.89619 25.0309 2.71732 24.8921 2.49375 24.882C2.45093 24.6596 2.4122 24.4364 2.37758 24.2128C2.58564 24.13 2.70905 23.9392 2.67742 23.6968C2.64591 23.4447 2.47763 23.2952 2.25606 23.2692C2.23369 23.0518 2.21516 22.8342 2.20045 22.6163C2.42203 22.5542 2.57203 22.3716 2.56129 22.1355C2.55052 21.877 2.38696 21.7084 2.16062 21.6672C2.15893 21.5647 2.15809 21.4622 2.15809 21.3597V20.7532C2.15809 20.6647 2.15872 20.5762 2.15998 20.4877C2.38665 20.4467 2.55051 20.278 2.56129 20.0193C2.57206 19.7716 2.42095 19.5868 2.19806 19.5325C2.21275 19.3085 2.23148 19.0848 2.25425 18.8614C2.48305 18.8403 2.65812 18.6899 2.69032 18.4323C2.71175 18.1966 2.58198 18.0054 2.37486 17.9177C2.40799 17.7023 2.44493 17.4874 2.48567 17.2731C2.713 17.266 2.89557 17.1268 2.94839 16.8839C3.00169 16.6493 2.88766 16.4412 2.68634 16.3469C2.73905 16.1304 2.79571 15.9147 2.85632 15.6999C3.07998 15.7129 3.27455 15.591 3.34839 15.3484C3.41158 15.1272 3.32005 14.9147 3.13694 14.7949C3.20816 14.5844 3.28328 14.375 3.36228 14.1667C3.58 14.197 3.78353 14.094 3.87742 13.8645C3.9611 13.6449 3.89216 13.4252 3.71871 13.2949C3.80948 13.0882 3.90422 12.8828 4.00292 12.6788C4.2141 12.7222 4.42098 12.6379 4.53549 12.4193C4.63891 12.2228 4.59312 12.0015 4.43133 11.8482C4.53877 11.6524 4.65002 11.458 4.76509 11.2654C4.97244 11.3224 5.17725 11.2553 5.30968 11.0516C5.43302 10.8563 5.40898 10.6364 5.26365 10.4768C5.39045 10.2871 5.52114 10.0993 5.65573 9.91337C5.85451 9.99089 6.07003 9.94228 6.2129 9.74838C6.34572 9.56449 6.34102 9.34824 6.21802 9.17649C6.35778 9.00258 6.50116 8.83062 6.64815 8.66073C6.83697 8.74748 7.04823 8.71347 7.20645 8.53548C7.3673 8.37463 7.37933 8.15896 7.27307 7.97389C7.35366 7.88963 7.43521 7.80595 7.51771 7.72286L7.51833 7.72224L7.59256 7.648Z" fill="white"/>
<path d="M28.2902 14.8709C28.3806 15.2064 28.1999 14.6645 28.2386 14.6645C28.3032 14.6645 28.329 15.5032 28.2773 15.5677C28.1096 15.8387 27.7354 16.2258 27.5031 16.4967C27.2064 16.8322 25.929 17.6451 25.7354 17.658C25.5419 17.6709 25.3612 17.5419 25.2967 17.529C25.2451 17.5032 25.1161 17.4645 24.458 17.4516C23.7999 17.4258 23.3741 17.1806 23.3741 17.1806C23.3741 17.1806 23.1806 17.4129 22.9612 17.7096C22.729 18.0064 22.3161 18.2645 22.3161 18.2645C22.2257 18.7032 21.7096 19.3613 21.4128 19.7355C21.4128 19.7355 22.2386 19.6451 22.9225 19.7355C23.6064 19.8258 24.1612 20.0193 24.2644 20.058C24.3677 20.0967 24.8451 20.1096 25.0386 20.3161C25.2322 20.5096 25.2838 20.9096 25.2838 20.9742C25.2967 21.0387 25.2967 21.1161 25.5161 21.6193C25.7096 22.0838 27.258 24.4064 27.387 24.6C27.5161 24.7935 28.058 25.4 28.7031 25.7097C29.3483 26.0193 29.9935 26.1226 30.058 26.1226C30.1225 26.1226 30.3806 26.1484 30.3548 26.2516C30.3161 26.3548 29.9806 26.4064 29.5806 26.4064C29.1806 26.4064 28.858 26.1613 28.4451 26.1871C28.0322 26.2 27.6322 26.3806 27.3225 26.3161C27.0128 26.2516 27.0644 25.6322 27.0386 25.3742C27.0128 25.1161 26.9225 25.0258 26.4322 24.5871C25.9419 24.1484 25.4773 24.1355 24.6644 23.5419C23.8515 22.9484 24.2515 21.6451 24.0709 21.5419C23.8902 21.4387 23.1935 21.8903 22.2257 22.0838C21.258 22.2774 20.5225 22.0451 20.5225 22.0451C20.5225 22.0451 20.3419 22.5355 19.9548 23.1419C19.5548 23.7484 18.7677 24.6903 18.6902 24.8193C18.5999 24.9484 18.3548 25.4258 18.2773 25.5032C18.1999 25.5806 17.9419 25.6064 17.8644 25.6064C17.787 25.6064 17.7225 25.6064 17.4902 25.6709C17.258 25.7355 16.6644 26.0064 15.9677 26.2903C15.2709 26.5742 13.9419 27.0903 13.8515 27.1161C13.7612 27.1419 13.6064 27.2838 13.5161 27.5161C13.4257 27.7484 13.3225 28.4709 13.3096 28.6774C13.2967 28.8838 13.5806 29.4129 13.6064 29.4645C13.6451 29.5161 13.929 29.6322 13.5419 29.6838C13.1548 29.7226 12.9354 29 12.8709 28.7161C12.7935 28.4451 12.7031 28.3161 12.4322 28.058C12.1612 27.8 12.0967 27.4258 12.2257 27.1419C12.3548 26.858 12.8709 26.858 13.0644 26.8322C13.258 26.8064 13.3225 26.7419 13.5935 26.5226C13.8644 26.3032 14.3935 25.8129 14.5354 25.5935C14.6773 25.3742 14.6773 25.2322 15.4902 24.729C16.2902 24.2258 17.2193 24.6129 17.3354 24.5484C17.4386 24.4838 17.2838 23.8645 17.529 22.9226C17.7612 21.9806 18.2128 21.4387 18.2128 21.4387C18.2128 21.4387 17.7612 21.0516 18.058 20.0709C18.3419 19.1419 19.2838 18.7161 19.2838 18.7161C19.2838 18.7161 19.4902 18.2 19.4902 17.7871C19.4773 17.3742 19.6193 16.8451 19.6193 16.8451C19.5935 16.6516 19.5548 16.6903 19.5419 16.3032C19.3483 16.3806 17.8386 17.0258 17.7354 17.2064C17.7096 17.258 17.7225 17.5548 17.5806 17.8258C17.4386 18.0967 16.3031 19.5161 16.2644 19.7226C16.2257 19.929 16.3419 20.1742 16.3806 20.4064C16.4193 20.6516 16.3806 20.729 16.4451 21.0258C16.4709 21.1677 16.5096 21.2709 16.4064 21.258C16.3031 21.2322 16.1741 20.7161 16.0838 20.6903C15.9935 20.6645 15.9419 20.7677 15.7612 20.8967C15.5677 21.0516 15.5677 21.0516 15.4515 21.2193C15.4128 21.2709 15.2967 21.5935 15.2064 21.6838C15.1548 21.7355 15.0128 21.6322 14.9483 21.5419C14.8838 21.4516 14.987 21.0387 15.0644 20.9226C15.1161 20.8451 15.1806 20.6516 15.2967 20.4193C15.4257 20.1742 15.4128 20.0709 15.5677 19.7484C15.7225 19.4129 15.6967 19.3484 15.9031 18.729C16.1225 18.1096 16.3677 17.5548 16.458 17.3742C16.6773 16.9355 16.3548 17 16.9741 16.6C17.4257 16.3161 17.6193 15.7225 19.0515 15.0774C19.1161 15.0516 19.4515 14.7935 19.658 14.6645C20.3677 14.2129 21.1806 14.8193 21.3354 14.7935C21.4386 14.7806 21.7225 14.329 21.7225 14.329C21.6967 14.3806 21.2709 14.2645 21.3612 13.8258C21.2451 13.6193 21.3483 13.1806 21.5419 12.9355C21.6838 12.7935 21.7612 12.458 22.0838 12.4193C22.2902 12.2129 22.3031 12.2258 22.587 12.2774C22.6902 12.1742 22.9096 12.1484 23.2838 12.3419C23.8773 12.4193 23.6322 12.4709 23.8128 12.6129C23.8128 12.6129 24.0967 12.5613 24.2902 12.858C24.2902 12.9225 24.587 13.1032 24.5612 13.1548C24.4709 13.258 24.5741 13.1935 24.4967 13.4258C24.458 13.5419 24.3161 13.5935 24.187 13.6193C24.1612 13.6193 24.1096 13.6322 24.0967 13.658C24.0838 13.6838 24.1225 13.7742 24.1354 13.8C24.1483 13.8387 24.3419 14.5225 24.3161 14.5613C24.2644 14.6129 23.9806 14.5484 23.9548 14.5484C23.929 14.5484 23.9677 14.5871 23.929 14.6516C23.9031 14.729 23.9031 14.7935 23.8773 14.7935C23.8515 14.7935 23.8386 14.8967 23.8386 14.9484C23.8386 15 23.8902 15.0129 23.8902 15.0774C23.9031 15.2064 23.787 15.2064 23.7354 15.2322C23.6967 15.2451 23.6967 15.2451 23.6064 15.2451C23.4773 15.2322 23.4773 15.1935 23.2967 15.1548C23.1031 15.1161 22.8322 14.8322 22.8322 14.8322C22.8322 14.8322 22.7419 15.2193 22.7419 15.2709C22.7548 15.3225 22.8967 15.3613 23.0773 15.4258C23.387 15.5419 23.6838 15.5677 23.8515 15.6322C23.9677 15.6838 24.0838 15.8516 24.187 15.9161C24.2902 15.9935 24.5612 16.0064 24.8967 16.1742C25.2451 16.3419 25.6967 16.7161 25.8257 16.6903C25.9677 16.6645 26.458 16.2903 26.7677 16.0709C27.0386 15.8129 28.2644 14.8064 28.2902 14.8709Z" fill="#8F2829"/>
<path d="M26.187 16.4838C26.4193 16.2774 27.7612 15.2838 27.8773 15.1032C27.9935 14.9225 27.9806 14.6516 28.0451 14.4193C28.1096 14.1871 28.1741 14.1096 28.2257 13.8129C28.2515 13.6709 28.2644 13.5548 28.3419 13.6064C28.4193 13.658 28.329 14.1871 28.3806 14.2516C28.4451 14.3032 28.5354 14.2258 28.729 14.1613C28.9483 14.0838 28.9483 14.0838 29.1161 13.9548C29.1677 13.9161 29.387 13.658 29.5031 13.5935C29.5677 13.5677 29.6451 13.6967 29.6709 13.8129C29.6967 13.929 29.4386 14.2774 29.3354 14.3548C29.2709 14.4064 29.1419 14.5742 28.9354 14.7548C28.729 14.9484 28.6515 15 28.4451 15.2967C28.2515 15.5806 28.187 15.6322 27.7612 16.1355" fill="#8F2829"/>
</svg>
