<svg width="10" height="14" viewBox="0 0 10 14" fill="none" xmlns="http://www.w3.org/2000/svg">
<path d="M1.84375 1.71875C2.76042 0.802083 3.86458 0.34375 5.15625 0.34375C6.44792 0.34375 7.55208 0.802083 8.46875 1.71875C9.38542 2.61458 9.84375 3.70833 9.84375 5C9.84375 5.64583 9.67708 6.39583 9.34375 7.25C9.03125 8.08333 8.64583 8.86458 8.1875 9.59375C7.72917 10.3021 7.27083 10.9792 6.8125 11.625C6.35417 12.25 5.96875 12.75 5.65625 13.125L5.15625 13.6562C5.03125 13.5312 4.86458 13.3438 4.65625 13.0938C4.44792 12.8438 4.07292 12.3646 3.53125 11.6562C3.01042 10.9271 2.54167 10.2292 2.125 9.5625C1.70833 8.875 1.33333 8.10417 1 7.25C0.666667 6.39583 0.5 5.64583 0.5 5C0.5 3.70833 0.947917 2.61458 1.84375 1.71875ZM3.96875 6.1875C4.30208 6.5 4.69792 6.65625 5.15625 6.65625C5.61458 6.65625 6.01042 6.5 6.34375 6.1875C6.67708 5.85417 6.84375 5.45833 6.84375 5C6.84375 4.54167 6.67708 4.15625 6.34375 3.84375C6.01042 3.51042 5.61458 3.34375 5.15625 3.34375C4.69792 3.34375 4.30208 3.51042 3.96875 3.84375C3.65625 4.15625 3.5 4.54167 3.5 5C3.5 5.45833 3.65625 5.85417 3.96875 6.1875Z" fill="#8F2829"/>
</svg>
